<?xml version="1.0" encoding="iso-8859-1"?>
<!-- Generator: Adobe Illustrator 25.2.0, SVG Export Plug-In . SVG Version: 6.00 Build 0)  -->
<svg version="1.1" id="Layer_1" xmlns="http://www.w3.org/2000/svg" xmlns:xlink="http://www.w3.org/1999/xlink" x="0px" y="0px"
	 viewBox="0 0 16 16" style="enable-background:new 0 0 16 16;" xml:space="preserve">
<path style="fill:none;stroke:#00539C;stroke-width:2;stroke-miterlimit:10;" d="M13.717,14H2.283C2.127,14,2,13.873,2,13.717V2.283
	C2,2.127,2.127,2,2.283,2h11.433C13.873,2,14,2.127,14,2.283v11.433C14,13.873,13.873,14,13.717,14z M2.048,13.947l11.898-11.9
	L2.048,13.947z"/>
<path style="fill:none;stroke:#00539C;stroke-width:2;stroke-miterlimit:10;" d="M2,4c0.011-0.16,0.081-0.884,0.694-1.444
	C3.218,2.078,3.816,2.013,4,2"/>
<path style="fill:none;stroke:#00539C;stroke-width:2;stroke-miterlimit:10;" d="M14,12c-0.011,0.16-0.081,0.884-0.694,1.444
	C12.782,13.922,12.184,13.987,12,14"/>
</svg>
