<?xml version="1.0" encoding="iso-8859-1"?>
<!-- Generator: Adobe Illustrator 25.2.0, SVG Export Plug-In . SVG Version: 6.00 Build 0)  -->
<svg version="1.1" id="Layer_1" xmlns="http://www.w3.org/2000/svg" xmlns:xlink="http://www.w3.org/1999/xlink" x="0px" y="0px"
	 viewBox="0 0 24 24" style="enable-background:new 0 0 24 24;" xml:space="preserve">
<path style="fill:none;stroke:#00539C;stroke-width:3;stroke-miterlimit:10;" d="M21.217,21.5H2.783
	c-0.157,0-0.283-0.127-0.283-0.283V2.783C2.5,2.627,2.627,2.5,2.783,2.5h18.433c0.157,0,0.283,0.127,0.283,0.283v18.433
	C21.5,21.373,21.373,21.5,21.217,21.5z M2.576,21.415L21.414,2.574L2.576,21.415z"/>
<path style="fill:none;stroke:#00539C;stroke-width:3;stroke-miterlimit:10;" d="M2.503,5.837C2.522,5.57,2.638,4.363,3.661,3.429
	C4.533,2.633,5.53,2.525,5.837,2.503"/>
<path style="fill:none;stroke:#00539C;stroke-width:3;stroke-miterlimit:10;" d="M21.507,18.173
	c-0.019,0.266-0.134,1.473-1.157,2.407c-0.873,0.797-1.869,0.905-2.176,0.926"/>
</svg>
