<?xml version="1.0" encoding="iso-8859-1"?>
<!-- Generator: Adobe Illustrator 25.2.0, SVG Export Plug-In . SVG Version: 6.00 Build 0)  -->
<svg version="1.1" id="Layer_1" xmlns="http://www.w3.org/2000/svg" xmlns:xlink="http://www.w3.org/1999/xlink" x="0px" y="0px"
	 viewBox="0 0 24 24" style="enable-background:new 0 0 24 24;" xml:space="preserve">
<path style="fill:none;stroke:#00539C;stroke-width:3;stroke-miterlimit:10;" d="M2.537,15.149c0.018-0.252,0.127-1.395,1.096-2.28
	c0.827-0.755,1.77-0.857,2.061-0.877"/>
<path style="fill:none;stroke:#00539C;stroke-width:3;stroke-miterlimit:10;" d="M21.537,15.149
	c-0.018-0.252-0.127-1.395-1.096-2.28c-0.827-0.755-1.77-0.857-2.061-0.877"/>
<path style="fill:none;stroke:#00539C;stroke-width:3;stroke-miterlimit:10;" d="M21.48,21.473c0-2.982,0.129-9.313,0-9.433
	c-0.129-0.121-8.32-0.047-18.931-0.047c0,0,0.067-7.893,0.021-7.893c-0.057,0-0.021,7.331-0.021,7.42s0.021,6.913,0.021,9.953"/>
<path style="fill:none;stroke:#00539C;stroke-width:3;stroke-miterlimit:10;" d="M2.537,8.835c0.018,0.252,0.127,1.395,1.096,2.28
	c0.827,0.755,1.77,0.857,2.061,0.877"/>
</svg>
