<?xml version="1.0" encoding="iso-8859-1"?>
<!-- Generator: Adobe Illustrator 25.2.0, SVG Export Plug-In . SVG Version: 6.00 Build 0)  -->
<svg version="1.1" id="Layer_1" xmlns="http://www.w3.org/2000/svg" xmlns:xlink="http://www.w3.org/1999/xlink" x="0px" y="0px"
	 viewBox="0 0 24 24" style="enable-background:new 0 0 24 24;" xml:space="preserve">
<path style="fill:#00539C;" d="M1.01,7.969C0.98,7.481,1.201,7.132,1.274,7.027c1.91-1.894,3.821-3.787,5.731-5.681
	c0.133-0.08,0.461-0.255,0.905-0.239c0.608,0.022,0.999,0.385,1.093,0.478c1.06,1.047,2.12,2.095,3.18,3.142
	c0.051,0.041,0.45,0.369,0.452,0.93c0.003,0.573-0.409,0.907-0.459,0.946c-0.668,0.669-1.336,1.339-2.005,2.008
	c4.274,4.277,8.547,8.554,12.821,12.831c-0.484,0.484-0.968,0.968-1.452,1.452c-4.297-4.228-8.594-8.457-12.891-12.685
	c-0.691,0.682-1.381,1.364-2.072,2.046c-0.063,0.062-0.426,0.409-0.98,0.39c-0.681-0.023-1.049-0.578-1.081-0.628
	c-1.064-1.072-2.128-2.145-3.192-3.217C1.241,8.692,1.036,8.399,1.01,7.969z"/>
<path style="fill:#00539C;" d="M20.266,1.276c-0.85,0.85-1.7,1.7-2.551,2.551c0.768,0.785,1.537,1.57,2.305,2.354
	c0.932-0.801,1.864-1.602,2.796-2.403c0.128,0.258,0.444,0.982,0.294,1.913c-0.122,0.757-0.493,1.288-0.736,1.57
	c-0.402,0.466-0.836,0.691-1.105,0.828c-0.526,0.267-0.975,0.349-1.426,0.43c-0.53,0.096-0.985,0.117-1.321,0.116
	c-1.684,1.714-3.065,3.095-4.002,4.027c-2.058,2.046-3.194,3.136-5.514,5.461c-0.658,0.659-1.498,1.504-2.491,2.516
	c-0.689,0.702-1.27,1.299-1.703,1.745c-0.152,0.145-0.518,0.453-1.08,0.568c-0.096,0.019-0.519,0.099-1.039-0.042
	c-1.134-0.307-1.606-1.362-1.654-1.474c-0.084-0.196-0.197-0.469-0.188-0.838c0.02-0.763,0.549-1.269,0.692-1.399
	c0.343-0.342,0.863-0.861,1.496-1.496c0.798-0.801,1.001-1.01,1.717-1.731c0.739-0.744,0.934-0.936,2.562-2.562
	c0.884-0.883,1.651-1.652,1.994-1.994c1.125-1.124,2.958-2.924,6.06-5.882c-0.056-0.325-0.104-0.821-0.012-1.412
	c0.059-0.383,0.166-1.022,0.638-1.668c0.453-0.619,0.999-0.912,1.226-1.03c0.563-0.293,1.063-0.369,1.275-0.392
	C19.298,0.941,19.935,1.143,20.266,1.276z"/>
</svg>
