<?xml version="1.0" encoding="iso-8859-1"?>
<!-- Generator: Adobe Illustrator 25.2.0, SVG Export Plug-In . SVG Version: 6.00 Build 0)  -->
<svg version="1.1" id="Layer_1" xmlns="http://www.w3.org/2000/svg" xmlns:xlink="http://www.w3.org/1999/xlink" x="0px" y="0px"
	 viewBox="0 0 16 16" style="enable-background:new 0 0 16 16;" xml:space="preserve">
<path style="fill:none;stroke:#00539C;stroke-width:2;stroke-miterlimit:10;" d="M2,10C2.011,9.84,2.08,9.116,2.694,8.556
	C3.218,8.078,3.816,8.013,4,8"/>
<path style="fill:none;stroke:#00539C;stroke-width:2;stroke-miterlimit:10;" d="M14.036,10c-0.011-0.16-0.081-0.884-0.694-1.444
	C12.818,8.078,12.22,8.013,12.036,8"/>
<path style="fill:none;stroke:#00539C;stroke-width:2;stroke-miterlimit:10;" d="M14,14.006c0-1.889,0.082-5.93,0-6.006
	S8.729,8,2.007,8c0,0,0.042-5,0.013-5C1.984,3,2.007,7.644,2.007,7.701c0,0.056,0.013,4.38,0.013,6.306"/>
<path style="fill:none;stroke:#00539C;stroke-width:2;stroke-miterlimit:10;" d="M2,6C2.011,6.16,2.08,6.884,2.694,7.444
	C3.218,7.922,3.816,7.987,4,8"/>
</svg>
