<?xml version="1.0" encoding="iso-8859-1"?>
<!-- Generator: Adobe Illustrator 25.2.0, SVG Export Plug-In . SVG Version: 6.00 Build 0)  -->
<svg version="1.1" id="Layer_1" xmlns="http://www.w3.org/2000/svg" xmlns:xlink="http://www.w3.org/1999/xlink" x="0px" y="0px"
	 viewBox="0 0 16 16" style="enable-background:new 0 0 16 16;" xml:space="preserve">
<path style="fill:#00539C;" d="M1.002,5.433C0.983,5.123,1.123,4.9,1.17,4.833c1.216-1.206,2.433-2.412,3.649-3.617
	c0.084-0.051,0.293-0.162,0.576-0.152c0.387,0.014,0.636,0.245,0.696,0.304c0.675,0.667,1.35,1.334,2.025,2.001
	c0.033,0.026,0.286,0.235,0.288,0.592c0.002,0.365-0.261,0.578-0.292,0.602C7.687,4.989,7.261,5.415,6.836,5.842
	c2.721,2.724,5.443,5.447,8.164,8.171c-0.308,0.308-0.616,0.616-0.925,0.925c-2.736-2.692-5.472-5.385-8.209-8.077
	c-0.44,0.434-0.88,0.869-1.319,1.303c-0.04,0.04-0.271,0.26-0.624,0.248c-0.434-0.015-0.668-0.368-0.688-0.4
	C2.557,7.327,1.879,6.644,1.202,5.962C1.149,5.894,1.018,5.707,1.002,5.433z"/>
<path style="fill:#00539C;" d="M13.263,1.171c-0.541,0.541-1.083,1.083-1.624,1.624c0.489,0.5,0.979,0.999,1.468,1.499
	c0.593-0.51,1.187-1.02,1.78-1.53c0.081,0.164,0.283,0.625,0.187,1.218c-0.077,0.482-0.314,0.82-0.469,0.999
	c-0.256,0.297-0.532,0.44-0.704,0.527c-0.335,0.17-0.621,0.222-0.908,0.274c-0.337,0.061-0.627,0.075-0.841,0.074
	c-1.072,1.091-1.952,1.971-2.549,2.564c-1.311,1.303-2.034,1.997-3.511,3.477c-0.419,0.42-0.954,0.958-1.586,1.602
	c-0.439,0.447-0.809,0.827-1.085,1.111c-0.097,0.092-0.33,0.289-0.688,0.362c-0.061,0.012-0.331,0.063-0.661-0.026
	c-0.722-0.196-1.023-0.867-1.053-0.939C0.966,13.884,0.894,13.71,0.9,13.474c0.013-0.486,0.35-0.808,0.441-0.891
	c0.219-0.218,0.55-0.548,0.952-0.952c0.508-0.51,0.637-0.643,1.094-1.102c0.47-0.474,0.595-0.596,1.631-1.631
	c0.563-0.562,1.052-1.052,1.27-1.27c0.716-0.716,1.884-1.862,3.859-3.746c-0.035-0.207-0.066-0.523-0.008-0.899
	c0.038-0.244,0.106-0.651,0.406-1.062c0.288-0.394,0.636-0.581,0.781-0.656c0.359-0.187,0.677-0.235,0.812-0.25
	C12.647,0.958,13.053,1.087,13.263,1.171z"/>
</svg>
