<svg xmlns="http://www.w3.org/2000/svg" width="37.642" height="27.126" viewBox="0 0 37.642 27.126"><defs><style>.a{fill:#f6eb16;}</style></defs><g transform="translate(0 0)"><path class="a" d="M65.6,26.941A5.775,5.775,0,0,0,65.28,15.4a6.158,6.158,0,0,0-1.78.27l.324,1.941a3.619,3.619,0,0,1,1.51-.324,3.883,3.883,0,0,1,0,7.766" transform="translate(-39.286 -15.292)"/><path class="a" d="M79.262,39.476a3.844,3.844,0,0,0-.162-7.5l.863-1.78a5.792,5.792,0,0,1,4.152,5.555A5.7,5.7,0,0,1,80.232,41.2" transform="translate(-46.473 -22.111)"/><path class="a" d="M63.631,52.93a3.619,3.619,0,0,0,1.51.324,3.883,3.883,0,0,0,0-7.766l.485-1.887A5.779,5.779,0,0,1,65.2,55.141a5.051,5.051,0,0,1-2-.377" transform="translate(-39.148 -28.284)"/><path class="a" d="M18.6,33.032l.377,1.887,5.339-1.079V31.9Z" transform="translate(-18.6 -22.894)"/><path class="a" d="M58.316,26.887,57.939,25,52.6,26.079v2Z" transform="translate(-34.264 -19.715)"/><path class="a" d="M52.6,51.4l5.339,1.079.377-1.887L52.6,49.4Z" transform="translate(-34.264 -30.957)"/><path class="a" d="M18.977,42.6,18.6,44.487l5.716,1.186v-2Z" transform="translate(-18.6 -27.824)"/><path class="a" d="M37.23,36.232l.054.054.162.054.108.108.108.054.162.108.108.054.108.108.108.108.108.108.108.108.108.162.054.108.108.108.054.162.108.108.054.162.054.162.054.162.054.108V38.5l.054.162v.162l.054.162v.324l-.054.162v.162l-.054.162v.162l-.054.162-.054.108-.054.162-.054.162-.108.108-.054.162-.108.108-.054.108-.108.162-.108.108-.108.108-.108.108-.108.108-.108.108-.162.054-.108.108-.108.054L37.284,42l-.162.108-.108.054-.162.054h-.162l-.162.054-.162.054H35.4l-.108-.054-.216-.054h-.108l-.162-.054-.162-.054L34.534,42l-.162-.054-.108-.054-.162-.108-.108-.054-.108-.108-.108-.108-.108-.108-.108-.108-.108-.108-.108-.162-.108-.108-.054-.108-.108-.162-.054-.108-.054-.162-.054-.162-.054-.108-.054-.162-.054-.162v-.162l-.054-.162V38.82l.054-.162V38.5l.054-.162.054-.108.054-.162.054-.162.054-.162.054-.108.108-.162.054-.108.108-.108.108-.162.108-.108.108-.108.108-.108.108-.108.108-.054L34.1,36.5l.108-.054V16.44l.054-.054v-.162l.054-.054v-.108l.054-.054.054-.054V15.9l.054-.108.054-.054.054-.054.054-.054.054-.054h.054l.054-.054.054-.054.054-.054h.054l.054-.054h.108l.054-.054h.054l.054-.054h.324l.054-.054h.108l.108.054h.27l.054.054h.054l.108.054h.054l.054.054h.054l.054.054.108.054.054.054H36.8l.054.054v.054l.054.054.054.054.054.108.054.054v.054l.054.054.054.108v.108l.054.108V20h3.937v2.1H37.23v3.344h3.937V27.5H37.23v3.344h3.937v2.049H37.23Z" transform="translate(-25.096 -15.2)"/></g></svg>