<svg xmlns="http://www.w3.org/2000/svg" width="37.642" height="27.126" viewBox="0 0 37.642 27.126"><defs><style>.a{fill:#ed2224;}</style></defs><g transform="translate(0 0)"><path class="a" d="M63.5,26.941A5.775,5.775,0,0,0,63.18,15.4a6.158,6.158,0,0,0-1.78.27l.324,1.941a3.619,3.619,0,0,1,1.51-.324,3.883,3.883,0,1,1,0,7.766" transform="translate(-37.186 -15.292)"/><path class="a" d="M77.162,39.476A3.844,3.844,0,0,0,77,31.98l.863-1.78a5.792,5.792,0,0,1,4.152,5.555A5.7,5.7,0,0,1,78.132,41.2" transform="translate(-44.373 -22.111)"/><path class="a" d="M61.531,52.93a3.619,3.619,0,0,0,1.51.324,3.883,3.883,0,0,0,0-7.766l.485-1.887A5.779,5.779,0,0,1,63.1,55.141a5.051,5.051,0,0,1-2-.377" transform="translate(-37.048 -28.284)"/><path class="a" d="M16.5,33.032l.431,1.887,5.285-1.079V31.9Z" transform="translate(-16.5 -22.894)"/><path class="a" d="M56.27,26.887,55.839,25,50.5,26.079v2Z" transform="translate(-32.164 -19.715)"/><path class="a" d="M50.5,51.4l5.339,1.079.431-1.887L50.5,49.4Z" transform="translate(-32.164 -30.957)"/><path class="a" d="M16.931,42.6,16.5,44.487l5.716,1.186v-2Z" transform="translate(-16.5 -27.824)"/><path class="a" d="M35.184,36.232v.054l.162.054.108.108.162.054.108.108.108.054.108.108.108.108.108.108.108.108.108.162.108.108.054.108.108.162.054.108.054.162.054.162.054.162.054.108.054.162v.162l.054.162v.647l-.054.162v.162l-.054.162-.054.162-.054.108-.054.162-.054.162-.054.108-.108.162-.054.108-.108.108-.108.162-.108.108-.108.108-.108.108-.108.108-.108.108-.108.054-.162.108-.108.054L35.184,42l-.108.108-.162.054-.162.054h-.162l-.108.054-.162.054H33.35l-.162-.054-.162-.054h-.162l-.162-.054L32.6,42.11,32.434,42l-.162-.054-.108-.054-.108-.108-.162-.054-.108-.108-.108-.108-.108-.108-.108-.108-.108-.108-.108-.162-.054-.108-.108-.108-.054-.162-.108-.108-.054-.162-.054-.162-.054-.108-.054-.162v-.162l-.054-.162v-.162l-.054-.162v-.324l.054-.162v-.162l.054-.162v-.162l.054-.108.054-.162.054-.162.054-.162.108-.108.054-.162.108-.108.054-.108.108-.162.108-.108.108-.108.108-.108.108-.108.108-.054.162-.108.054-.054v-19.9l.054-.108v-.162l.054-.054v-.054l.054-.108v-.054l.054-.054.054-.054v-.108l.054-.054.054-.054.054-.054.054-.054h.054l.054-.054.054-.054.054-.054h.108l.054-.054h.054l.054-.054h.054l.108-.054h.27l.054-.054h.162l.054.054h.27l.108.054h.054l.054.054h.054l.054.054h.108l.054.054.054.054.054.054H34.7l.054.054.054.054.054.054v.054l.054.108.054.054.054.054v.054l.054.108v.054l.054.054v.162l.054.108V20h3.883v2.1H35.184v3.344h3.883V27.5H35.184v3.344h3.883v2.049H35.184Z" transform="translate(-22.996 -15.2)"/></g></svg>