<svg xmlns="http://www.w3.org/2000/svg" width="38.505" height="31.495" viewBox="0 0 38.505 31.495"><defs><style>.a{fill:#ed2224;}</style></defs><g transform="translate(0 0)"><path class="a" d="M64.511,23.364A5.938,5.938,0,0,0,64.134,11.5a6.849,6.849,0,0,0-1.834.27l.324,2a3.868,3.868,0,0,1,1.564-.324,3.937,3.937,0,1,1,0,7.873" transform="translate(-37.547 -10.691)"/><path class="a" d="M78.462,36.291A3.964,3.964,0,0,0,78.3,28.58l.863-1.78a6,6,0,0,1,4.26,5.662,5.933,5.933,0,0,1-3.991,5.609" transform="translate(-44.918 -17.74)"/><path class="a" d="M34.144,19.472A1.672,1.672,0,1,1,32.472,17.8,1.68,1.68,0,0,1,34.144,19.472Z" transform="translate(-23.034 -13.594)"/><ellipse class="a" cx="1.672" cy="1.672" rx="1.672" ry="1.672" transform="translate(14.021 4.206)"/><path class="a" d="M34.144,30.372A1.672,1.672,0,1,1,32.472,28.7,1.646,1.646,0,0,1,34.144,30.372Z" transform="translate(-23.034 -18.615)"/><ellipse class="a" cx="1.672" cy="1.672" rx="1.672" ry="1.672" transform="translate(14.021 10.085)"/><path class="a" d="M34.144,51.572A1.672,1.672,0,1,1,32.472,49.9,1.68,1.68,0,0,1,34.144,51.572Z" transform="translate(-23.034 -28.383)"/><path class="a" d="M34.144,41.372A1.672,1.672,0,1,1,32.472,39.7,1.68,1.68,0,0,1,34.144,41.372Z" transform="translate(-23.034 -23.683)"/><ellipse class="a" cx="1.672" cy="1.672" rx="1.672" ry="1.672" transform="translate(14.021 16.017)"/><g transform="translate(0 6.148)"><path class="a" d="M16.4,29.64l.431,1.887,5.447-1.079V28.4Z" transform="translate(-16.4 -24.625)"/><path class="a" d="M57.078,23.341,56.7,21.4l-5.5,1.132v2Z" transform="translate(-32.433 -21.4)"/><path class="a" d="M16.831,39.4,16.4,41.341l5.878,1.186v-2Z" transform="translate(-16.4 -29.693)"/></g><rect class="a" width="10.678" height="2.373" transform="translate(7.28)"/><path class="a" d="M69.2,44.337h2.157A5.976,5.976,0,0,0,66.285,40.4L65.8,42.341A4.267,4.267,0,0,1,69.2,44.337Z" transform="translate(-39.16 -24.006)"/><rect class="a" width="4.746" height="2.373" transform="translate(7.28 26.748)"/><g transform="translate(14.351 22.164)"><path class="a" d="M58.591,53.473s-9.33,0-12.781-.054c-3.829-.054-3.613,4.907-.054,4.907H58.537a5.038,5.038,0,0,0,3.829,2.1,4.1,4.1,0,0,0,4.314-3.182H63.229l-1.24-1.4,1.294-1.456h3.451a4.386,4.386,0,0,0-4.152-3.29A4.821,4.821,0,0,0,58.591,53.473Zm-13.051.863c2.157,0,13.752.054,13.752.054a3.807,3.807,0,0,1,3.4-2.319,3.006,3.006,0,0,1,2.589,1.348H62.9l-2.157,2.427L62.9,58.272H65.17a3.05,3.05,0,0,1-2.8,1.24,3.716,3.716,0,0,1-3.29-2.157s-11.217.054-13.7-.108C43.383,57.194,43.6,54.39,45.54,54.336Z" transform="translate(-43.012 -51.1)"/></g></g></svg>