<svg xmlns="http://www.w3.org/2000/svg" width="31.764" height="23.836" viewBox="0 0 31.764 23.836"><defs><style>.a{fill:#f6eb16;}</style></defs><g transform="translate(0 0)"><g transform="translate(0 2.157)"><path class="a" d="M24,22.2V43.879H55.764V22.2Zm29.607,2.157V41.668H26.157V24.357Z" transform="translate(-24 -22.2)"/></g><rect class="a" width="5.069" height="3.613" transform="translate(6.148)"/><rect class="a" width="5.069" height="3.613" transform="translate(21.302)"/><g transform="translate(5.824 10.678)"><path class="a" d="M39.923,39.941H34.8V38h5.123Z" transform="translate(-34.8 -38)"/></g><g transform="translate(20.007 9.06)"><path class="a" d="M67.34,38.813H64.913v2.373h-1.24V38.813H61.3v-1.24h2.373V35.2h1.24v2.373h2.373v1.24Z" transform="translate(-61.192 -35.092)"/><path class="a" d="M63.473,35v2.373H61.1v1.51h2.373v2.373h1.51V38.883h2.373v-1.51H64.983V35Zm1.24.27v2.373h2.373v.971H64.713v2.373h-.971V38.613H61.37v-.971h2.373V35.27Z" transform="translate(-61.1 -35)"/></g></g></svg>