<svg xmlns="http://www.w3.org/2000/svg" width="31.764" height="23.836" viewBox="0 0 31.764 23.836"><defs><style>.a{fill:#ed2224;}</style></defs><g transform="translate(0 0)"><g transform="translate(0 2.157)"><path class="a" d="M21.9,22.2V43.879H53.664V22.2Zm29.607,2.157V41.668H24.057V24.357Z" transform="translate(-21.9 -22.2)"/></g><rect class="a" width="5.069" height="3.613" transform="translate(6.148)"/><rect class="a" width="5.069" height="3.613" transform="translate(21.302)"/><g transform="translate(5.824 10.678)"><path class="a" d="M37.823,39.941H32.7V38h5.123Z" transform="translate(-32.7 -38)"/></g><g transform="translate(20.007 9.06)"><path class="a" d="M65.286,38.813H62.913v2.373h-1.24V38.813H59.3v-1.24h2.373V35.2h1.24v2.373h2.373Z" transform="translate(-59.138 -35.092)"/><path class="a" d="M61.373,35v2.373H59v1.51h2.373v2.373h1.51V38.883h2.373v-1.51H62.883V35Zm1.24.27v2.373h2.373v.971H62.613v2.373h-.971V38.613H59.27v-.971h2.373V35.27Z" transform="translate(-59 -35)"/></g></g></svg>