<svg xmlns="http://www.w3.org/2000/svg" width="40.662" height="16.125" viewBox="0 0 40.662 16.125"><defs><style>.a{fill:#ed2224;}</style></defs><g transform="translate(0 0)"><path class="a" d="M88.439,42.758,88.062,41.3,87.9,39.9l.162,1.456Z" transform="translate(-47.885 -31.056)"/><path class="a" d="M85.339,39.9l-.162,1.4L84.8,42.758l.378-1.4Z" transform="translate(-46.457 -31.056)"/><path class="a" d="M88.439,42.758,87.9,39.9l.162,1.4Z" transform="translate(-47.885 -31.056)"/><path class="a" d="M85.339,39.9,84.8,42.758l.378-1.456Z" transform="translate(-46.457 -31.056)"/><path class="a" d="M86.634,40.9l-.162-1.456-.054-.324h-.054v-.054H86.31l-.216-.162h-.27l-.162.108-.162.054-.162.377L85.178,40.9,84.8,42.3v.593l.108.216.054.108.054.108.108.108.054.054.108.108.431.216H86.2l.431-.216.108-.162H86.8l.054-.054.108-.162.162-.485-.108-.431Z" transform="translate(-46.457 -30.595)"/><path class="a" d="M53.175,29.216l1.132-1.672-1.78-1.834-4.26,1.672-10.678,2.8-1.78-1.78H30.741V26.089h2.75V24.039H26.265v2.049h2.75v2.319H23.946v-1.78L15.318,23.5,13.7,29.7l8.251,3.02v6.9H40.988l9.006-10.786,2-.755Zm-37.1-.755.593-2.211,5.285,1.887v2.427Zm24.052,9.114H23.946V30.511h11l2.049,2L47.028,29.27Z" transform="translate(-13.7 -23.5)"/></g></svg>