<svg xmlns="http://www.w3.org/2000/svg" width="40.662" height="16.071" viewBox="0 0 40.662 16.071"><defs><style>.a{fill:#f6eb16;}</style></defs><g transform="translate(0 0)"><path class="a" d="M90.539,42.758,90.162,41.3,90,39.9l.162,1.456Z" transform="translate(-49.931 -31.11)"/><path class="a" d="M87.439,39.9l-.162,1.4L86.9,42.758l.377-1.4Z" transform="translate(-48.503 -31.11)"/><path class="a" d="M90.539,42.758,90,39.9l.162,1.4Z" transform="translate(-49.931 -31.11)"/><path class="a" d="M87.439,39.9,86.9,42.758l.377-1.456Z" transform="translate(-48.503 -31.11)"/><path class="a" d="M88.734,40.9l-.162-1.456-.054-.324H88.41v-.054h-.054l-.162-.162h-.324l-.108.108-.162.054-.162.377L87.277,40.9,86.9,42.3v.593l.108.216.054.108.054.108.108.108.054.054.054.108.485.216H88.3l.431-.216.108-.162H88.9v-.054l.162-.162.108-.485-.054-.431Z" transform="translate(-48.503 -30.649)"/><path class="a" d="M55.229,29.262l1.132-1.672-1.78-1.834-4.26,1.672L39.59,30.287l-1.78-1.78H32.741V26.189h2.75V24.139H28.265v2.049h2.75v2.319H25.946v-1.78L17.318,23.6,15.7,29.8l8.251,2.966v6.9H42.988l9.006-10.786,2-.755Zm-37.1-.755L18.72,26.3,24,28.184v2.427Zm24,9.114H25.946V30.557h11l2.049,2,10.031-3.236Z" transform="translate(-15.7 -23.6)"/></g></svg>