<svg xmlns="http://www.w3.org/2000/svg" width="36.455" height="28.366" viewBox="0 0 36.455 28.366"><defs><style>.a{fill:#f6eb16;}</style></defs><g transform="translate(0 0)"><g transform="translate(4.099)"><path class="a" d="M27.2,29.037A14.143,14.143,0,0,0,41.329,43.166,14.178,14.178,0,0,0,55.458,28.983,14.178,14.178,0,0,0,41.329,14.8,14.341,14.341,0,0,0,27.2,29.037Zm2,0A12.21,12.21,0,0,1,41.383,16.849a11.9,11.9,0,0,1,8.575,3.559,12.023,12.023,0,0,1,3.559,8.628A12.152,12.152,0,0,1,41.383,41.171,12.1,12.1,0,0,1,29.2,29.037Z" transform="translate(-27.2 -14.8)"/></g><g transform="translate(0 1.294)"><g transform="translate(0 0.108)"><path class="a" d="M19.6,30.235a18.018,18.018,0,0,0,5.5,13.051l1.51-1.564a16.017,16.017,0,0,1-.162-22.812l-1.51-1.51A17.989,17.989,0,0,0,19.6,30.235Z" transform="translate(-19.6 -17.4)"/></g><g transform="translate(29.445)"><path class="a" d="M74.254,18.71A16.082,16.082,0,0,1,74.2,41.683l1.51,1.564A18.231,18.231,0,0,0,75.764,17.2Z" transform="translate(-74.2 -17.2)"/></g></g><g transform="translate(16.556 7.28)"><path class="a" d="M51.8,38.491l-.7-6.417V29h2.858v3.02l-.647,6.417H51.8ZM51.154,42.7V40.756H53.8V42.7Z" transform="translate(-50.669 -28.623)"/><path class="a" d="M50.3,28.3v3.451l.755,6.849h2.211l.7-6.795V28.354H50.3Zm2.858.755V31.7s-.539,5.393-.593,6.04H51.81c-.054-.647-.7-6.094-.7-6.094V29.055Z" transform="translate(-50.3 -28.3)"/><path class="a" d="M50.5,50.1v2.7h3.451V50.1Zm2.642.809v1.132H51.309V50.909Z" transform="translate(-50.392 -38.344)"/></g></g></svg>