<svg xmlns="http://www.w3.org/2000/svg" width="36.455" height="28.366" viewBox="0 0 36.455 28.366"><defs><style>.a{fill:#ed2224;}</style></defs><g transform="translate(0 0)"><g transform="translate(4.099)"><path class="a" d="M25.2,29.037A14.143,14.143,0,0,0,39.329,43.166,14.178,14.178,0,0,0,53.458,28.983,14.178,14.178,0,0,0,39.329,14.8,14.306,14.306,0,0,0,25.2,29.037Zm1.941,0A12.21,12.21,0,0,1,39.329,16.849,11.9,11.9,0,0,1,47.9,20.409a12.023,12.023,0,0,1,3.559,8.628A12.152,12.152,0,0,1,39.329,41.171,12.129,12.129,0,0,1,27.141,29.037Z" transform="translate(-25.2 -14.8)"/></g><g transform="translate(0 1.294)"><g transform="translate(0 0.108)"><path class="a" d="M17.6,30.235a18.018,18.018,0,0,0,5.5,13.051l1.51-1.564a16.017,16.017,0,0,1-.162-22.812l-1.51-1.51A17.989,17.989,0,0,0,17.6,30.235Z" transform="translate(-17.6 -17.4)"/></g><g transform="translate(29.445)"><path class="a" d="M72.254,18.71A16.082,16.082,0,0,1,72.2,41.683l1.51,1.564A18.231,18.231,0,0,0,73.764,17.2Z" transform="translate(-72.2 -17.2)"/></g></g><g transform="translate(16.502 7.28)"><path class="a" d="M49.7,38.491,49,32.02V29h2.858v3.02l-.647,6.417H49.7ZM49.108,42.7V40.756H51.75V42.7Z" transform="translate(-48.569 -28.623)"/><path class="a" d="M48.2,28.3v3.451l.755,6.849h2.211l.7-6.849V28.3Zm2.858.755V31.7s-.539,5.393-.593,6.04H49.71c-.054-.647-.7-6.094-.7-6.094V29.055Z" transform="translate(-48.2 -28.3)"/><path class="a" d="M48.4,50.1v2.7h3.451V50.1Zm2.642.809v1.132H49.209V50.909Z" transform="translate(-48.292 -38.344)"/></g></g></svg>