<svg xmlns="http://www.w3.org/2000/svg" width="31.818" height="27.234" viewBox="0 0 31.818 27.234"><defs><style>.a{fill:#f6eb16;}</style></defs><path class="a" d="M53.656,19.091H48.587V17.257h1.456V15.1H40.875v2.157h1.618c0,.539-.054,1.294-.054,1.887-1.834,0-20.439.108-20.439.108V42.334l31.818-.162Zm-9.114,2.157.054-3.991h1.834v3.991H51.5c0,1.186.054,8.3.108,13.428a2.519,2.519,0,0,1-.917.162A2.589,2.589,0,0,1,48.1,32.249a1.493,1.493,0,0,1,.054-.485h-1.51a1.493,1.493,0,0,1,.054.485,2.562,2.562,0,1,1-5.123,0,1.493,1.493,0,0,1,.054-.485H40.12a1.493,1.493,0,0,1,.054.485,2.589,2.589,0,0,1-5.177,0,1.493,1.493,0,0,1,.054-.485H33.595a1.493,1.493,0,0,1,.054.485,2.589,2.589,0,0,1-5.177,0,1.493,1.493,0,0,1,.054-.485H27.069a1.493,1.493,0,0,1,.054.485,2.589,2.589,0,0,1-2.589,2.589,1.493,1.493,0,0,1-.485-.054c.054-5.123-.108-12.188-.108-13.374C25.991,21.41,44.542,21.248,44.542,21.248Z" transform="translate(-22 -15.1)"/></svg>