<svg xmlns="http://www.w3.org/2000/svg" width="31.872" height="27.18" viewBox="0 0 31.872 27.18"><defs><style>.a{fill:#ed2224;}</style></defs><path class="a" d="M54.31,19.091H49.24V17.257h1.4V15.1H41.475v2.157h1.618c0,.539-.054,1.294-.054,1.887-1.834,0-20.439.108-20.439.108l.054,23.027,31.818-.162ZM45.2,21.248l.054-3.991h1.834v3.991h5.069c0,1.186.054,8.3.108,13.428a2.519,2.519,0,0,1-.917.162,2.589,2.589,0,0,1-2.589-2.589,1.493,1.493,0,0,1,.054-.485H47.3a1.493,1.493,0,0,1,.054.485,2.589,2.589,0,0,1-5.177,0,1.493,1.493,0,0,1,.054-.485H40.72a1.493,1.493,0,0,1,.054.485,2.589,2.589,0,0,1-5.177,0,1.493,1.493,0,0,1,.054-.485H34.195a1.493,1.493,0,0,1,.054.485,2.589,2.589,0,0,1-5.177,0,1.493,1.493,0,0,1,.054-.485H27.669a1.493,1.493,0,0,1,.054.485,2.578,2.578,0,0,1-2.535,2.589,1.493,1.493,0,0,1-.485-.054C24.757,29.661,24.6,22.6,24.6,21.41,26.645,21.41,45.2,21.248,45.2,21.248Z" transform="translate(-22.6 -15.1)"/></svg>