<svg xmlns="http://www.w3.org/2000/svg" width="35.215" height="31.009" viewBox="0 0 35.215 31.009"><defs><style>.a{fill:#f6eb16;}</style></defs><g transform="translate(0 0)"><path class="a" d="M52.814,29.815h.054l.108.108.162.054.108.108.108.054.108.108.108.108.108.054.108.108.108.108.054.162.108.108.054.108.108.108.054.162.054.108.054.162.054.162.054.108.054.162V32.3l.054.162v.27l-.054.162v.324l-.054.162-.054.108-.054.162-.054.108-.054.162-.054.108-.108.162-.054.108-.108.108-.054.108-.108.108-.108.108-.108.108-.108.108-.108.108-.108.054-.108.108-.162.054-.108.054-.162.108-.108.054h-.162l-.162.054-.108.054h-.162l-.162.054H51.2l-.108-.054h-.162l-.162-.054-.162-.054H50.5l-.162-.054-.108-.108-.162-.054-.108-.054-.108-.108-.162-.054-.108-.108-.108-.108-.108-.108-.108-.108-.054-.108-.108-.108-.108-.108-.054-.108-.108-.162-.054-.108-.054-.162-.054-.108-.054-.162-.054-.108v-.162l-.054-.162v-.917l.054-.162v-.162l.054-.108.054-.162.054-.162.054-.108.054-.162L48.931,31l.054-.108.108-.108.108-.162.054-.108.108-.108.108-.054.108-.108.108-.108.162-.054.054-.108V10.994l.054-.108v-.162l.054-.054v-.054l.054-.108v-.054l.054-.054v-.054l.054-.054.054-.054.054-.054.054-.054.054-.054.054-.054L50.5,9.97h.054l.054-.054.054-.054h.054l.054-.054h.054l.054-.054h.216l.054-.054h.431l.054.054h.216l.054.054h.054l.054.054h.054l.108.054.054.054h.054l.054.054.054.054.054.054.054.054v.054l.054.054.054.054.054.054v.054l.054.054v.108l.054.054v.054l.054.108v3.451h7.6v2h-7.6v3.182h7.6v2h-7.6v3.182h7.6v2h-7.6Z" transform="translate(-33.939 -9.7)"/><path class="a" d="M21.554,50.519,21.5,47.877A7.676,7.676,0,0,1,25.652,46.8c2.481.054,4.045,1.564,6.094,1.941a6.4,6.4,0,0,0,2.1-.108,4.231,4.231,0,0,0-.216,1.294,4.187,4.187,0,0,0,.162,1.025A16.487,16.487,0,0,1,31.746,51c-2.589-.216-3.775-1.941-6.417-1.941A9.552,9.552,0,0,0,21.554,50.519Z" transform="translate(-21.5 -26.791)"/><path class="a" d="M76.25,50.412V47.877A7.676,7.676,0,0,0,72.1,46.8c-2.481.054-4.045,1.564-6.094,1.941a6.056,6.056,0,0,1-2.1-.108,4.231,4.231,0,0,1,.216,1.294,4.187,4.187,0,0,1-.162,1.025A16.487,16.487,0,0,0,66,51c2.912-.216,3.775-1.941,6.417-1.941A10.057,10.057,0,0,1,76.25,50.412Z" transform="translate(-41.034 -26.791)"/><path class="a" d="M26.854,62.842,26.8,60.469a3.388,3.388,0,0,1,2.589-.216c1.294.485,1.51,1.025,3.128,1.025s2.589-1.132,4.638-1.132c2.1,0,3.128,1.186,4.584,1.24S44,59.984,46,60.146c1.941.162,3.344,1.186,4.854,1.186s2.265-1.24,3.829-1.24,1.887.485,1.887.485l-.054,2.373A2.365,2.365,0,0,0,55,62.465c-.971,0-2.427,1.456-4.314,1.456s-3.182-1.294-4.8-1.24-2.1,1.186-4.1,1.186-3.236-1.24-4.638-1.24-2.589,1.186-4.854,1.24-2.535-1.132-4.152-1.24C27.016,62.573,26.854,62.842,26.854,62.842Z" transform="translate(-23.942 -32.912)"/></g></svg>