<svg xmlns="http://www.w3.org/2000/svg" width="35.215" height="31.009" viewBox="0 0 35.215 31.009"><defs><style>.a{fill:#ed2224;}</style></defs><g transform="translate(0 0)"><path class="a" d="M52.368,29.815h0l.162.108.108.054.162.108.108.054.108.108.108.108.108.054.108.108.108.108.054.162.108.108.054.108.108.108.054.162.054.108.054.162.054.162.054.108v.162l.054.162v.324l.054.108-.054.162v.324l-.054.162v.162l-.054.108-.054.162-.054.108-.054.162-.054.108-.108.162-.054.108L53.5,34.4l-.054.108-.108.108-.108.108-.108.108-.108.108-.108.108L52.8,35.1l-.162.108-.108.054-.162.054-.108.108-.162.054h-.108l-.162.054-.162.054h-.108l-.162.054H50.75l-.162-.054h-.108l-.162-.054-.162-.054h-.108l-.162-.054-.108-.108-.162-.054-.108-.054-.162-.108-.108-.054-.108-.108-.108-.108-.108-.108-.108-.108-.108-.108-.054-.108-.108-.108-.054-.108-.108-.162-.054-.108-.054-.162-.054-.108-.054-.162-.054-.108v-.162l-.054-.162v-.162L48,32.727v-.27l.054-.162v-.162l.054-.162v-.162l.054-.108.054-.162.054-.162.054-.108.054-.162L48.485,31l.054-.108.108-.108.054-.162.108-.108.108-.108.108-.054.108-.108.108-.108.108-.054.108-.108V10.886l.054-.054v-.162l.054-.054v-.108l.054-.054.054-.054v-.054l.054-.054.054-.054.054-.054.054-.054v-.054l.054-.054L50,9.97h.054l.054-.054.108-.054h.054l.054-.054h.054l.054-.054h.216L50.7,9.7h.431l.054.054H51.4l.054.054h.054l.054.054h.054l.054.054.108.054h.054l.054.054.054.054v.054l.054.054.054.054.054.054.054.054V10.4l.054.054.054.054v.108l.054.054v.162l.054.054v3.4h7.6v2h-7.6v3.182h7.6v2h-7.6v3.182h7.6v2h-7.6Z" transform="translate(-33.493 -9.7)"/><path class="a" d="M21.154,50.519,21.1,47.877A7.676,7.676,0,0,1,25.252,46.8c2.481.054,4.045,1.564,6.094,1.941a6.4,6.4,0,0,0,2.1-.108,4.231,4.231,0,0,0-.216,1.294,4.187,4.187,0,0,0,.162,1.025A16.487,16.487,0,0,1,31.346,51c-2.589-.216-3.775-1.941-6.417-1.941A9.552,9.552,0,0,0,21.154,50.519Z" transform="translate(-21.1 -26.791)"/><path class="a" d="M75.85,50.412V47.877A7.676,7.676,0,0,0,71.7,46.8c-2.481.054-4.045,1.564-6.094,1.941a6.056,6.056,0,0,1-2.1-.108,4.231,4.231,0,0,1,.216,1.294,4.187,4.187,0,0,1-.162,1.025A16.487,16.487,0,0,0,65.6,51c2.912-.216,3.775-1.941,6.417-1.941A10.48,10.48,0,0,1,75.85,50.412Z" transform="translate(-40.634 -26.791)"/><path class="a" d="M26.354,62.842,26.3,60.469a3.388,3.388,0,0,1,2.589-.216c1.294.485,1.51,1.025,3.128,1.025s2.589-1.132,4.638-1.132c2.1,0,3.128,1.186,4.584,1.24s2.265-1.4,4.26-1.24c1.941.162,3.344,1.186,4.854,1.186s2.265-1.24,3.829-1.24,1.887.485,1.887.485l-.054,2.373a2.365,2.365,0,0,0-1.51-.485c-.971,0-2.427,1.456-4.314,1.456s-3.182-1.294-4.8-1.24-2.1,1.186-4.1,1.186-3.236-1.24-4.638-1.24-2.589,1.186-4.854,1.24-2.535-1.132-4.152-1.24C26.57,62.573,26.354,62.842,26.354,62.842Z" transform="translate(-23.496 -32.912)"/></g></svg>