<svg xmlns="http://www.w3.org/2000/svg" width="42.118" height="27.076" viewBox="0 0 42.118 27.076"><defs><style>.a{fill:#f6eb16;}</style></defs><g transform="translate(0 0)"><g transform="translate(0 7.674)"><path class="a" d="M12.5,42.283V28.315a1.487,1.487,0,0,1,2.75.7V42.984C14.01,44.332,12.5,43.469,12.5,42.283Z" transform="translate(-12.5 -27.631)"/></g><g transform="translate(0.539 14.561)"><path class="a" d="M19.756,40.4v2.157H13.5V40.4Z" transform="translate(-13.5 -40.4)"/></g><path class="a" d="M48.416,22.484l-.863-1.456c-1.079-1.887-2.265-3.883-4.8-3.829l-13.644.054c-2.7.054-3.613,1.618-5.123,4.26L22.8,23.4v.377s.054,18.012.054,18.443h9.761c3.4.054,4.314-.324,7.82-4.53l.054-.108H59.363v-15.1Zm9.168,13.428H39.626a.931.931,0,0,0-.162.216c-3.344,4.152-3.775,4.422-6.849,4.422H24.526v-13.7c0-2.8,0-2.858.054-2.912v-.054l.863-1.456c1.456-2.481,1.941-3.4,3.721-3.4l13.59-.054c1.618-.054,2.265,1.186,3.29,2.966,0,0,1.186,1.941,1.456,2.319H57.638V35.912Z" transform="translate(-17.245 -15.15)"/><g transform="translate(13.374 0.809)"><path class="a" d="M39.457,14.9V17H37.3V14.9Z" transform="translate(-37.3 -14.9)"/></g><g transform="translate(11.918)"><path class="a" d="M39.561,13.4v1.132H34.6V13.4Z" transform="translate(-34.6 -13.4)"/></g><g transform="translate(17.674 6.212)"><path class="a" d="M47.765,34.346V25.5a1.216,1.216,0,0,0-2.265.539v7.82C45.5,34.831,46.74,35.478,47.765,34.346Z" transform="translate(-45.378 -24.918)"/><path class="a" d="M47.445,46.112a1.3,1.3,0,0,0-1.834,1.834A1.3,1.3,0,0,0,47.445,46.112Z" transform="translate(-45.274 -34.527)"/></g></g></svg>