<svg xmlns="http://www.w3.org/2000/svg" width="42.118" height="27.076" viewBox="0 0 42.118 27.076"><defs><style>.a{fill:#ed2224;}</style></defs><g transform="translate(0 0)"><g transform="translate(0 7.674)"><path class="a" d="M13.1,42.283V28.315a1.487,1.487,0,0,1,2.75.7V42.984C14.61,44.332,13.1,43.469,13.1,42.283Z" transform="translate(-13.1 -27.631)"/></g><g transform="translate(0.539 14.561)"><path class="a" d="M20.356,40.4v2.157H14.1V40.4Z" transform="translate(-14.1 -40.4)"/></g><path class="a" d="M49.016,22.484l-.863-1.456c-1.079-1.887-2.265-3.883-4.8-3.829l-13.644.054c-2.7.054-3.613,1.618-5.123,4.26L23.4,23.4v.377s.054,18.012.054,18.443h9.761c3.4.054,4.314-.324,7.82-4.53l.054-.108H59.963v-15.1Zm9.222,13.428H40.28a.931.931,0,0,0-.162.216c-3.344,4.152-3.775,4.422-6.849,4.422H25.234L25.18,30.519V26.852c0-2.8,0-2.858.054-2.912v-.054L26.1,22.43c1.456-2.481,1.941-3.4,3.721-3.4l13.59-.054c1.618-.054,2.265,1.186,3.29,2.966,0,0,1.186,1.941,1.456,2.319H58.238Z" transform="translate(-17.845 -15.15)"/><g transform="translate(13.374 0.809)"><path class="a" d="M40.057,14.9V17H37.9V14.9Z" transform="translate(-37.9 -14.9)"/></g><g transform="translate(11.918)"><path class="a" d="M40.161,13.4v1.132H35.2V13.4Z" transform="translate(-35.2 -13.4)"/></g><g transform="translate(17.674 6.212)"><path class="a" d="M48.365,34.346V25.5a1.216,1.216,0,0,0-2.265.539v7.82C46.1,34.831,47.394,35.478,48.365,34.346Z" transform="translate(-45.978 -24.918)"/><path class="a" d="M48.045,46.112a1.3,1.3,0,0,0-1.834,1.834A1.3,1.3,0,0,0,48.045,46.112Z" transform="translate(-45.874 -34.527)"/></g></g></svg>