<svg xmlns="http://www.w3.org/2000/svg" width="31.063" height="31.009" viewBox="0 0 31.063 31.009"><defs><style>.a{fill:#f6eb16;}</style></defs><g transform="translate(0 0)"><g transform="translate(13.967 7.981)"><path class="a" d="M53,53.9l.539.108.539-.108" transform="translate(-52.083 -39.016)"/><path class="a" d="M54.51,53.3,53,53.624h1.079" transform="translate(-52.083 -38.739)"/><path class="a" d="M52.1,53.3l.485.324L54.1,53.3" transform="translate(-51.669 -38.739)"/><path class="a" d="M54.419,52.5l-2.319.431h2" transform="translate(-51.669 -38.371)"/><path class="a" d="M51.6,52.5l.27.431,2.319-.431" transform="translate(-51.438 -38.371)"/><path class="a" d="M54.3,51.3l-2.7.647h2.589" transform="translate(-51.438 -37.818)"/><path class="a" d="M51.3,51.3l.162.647,2.7-.647" transform="translate(-51.3 -37.818)"/><path class="a" d="M54.05,50.3l-2.75.539h2.858" transform="translate(-51.3 -37.357)"/><path class="a" d="M51.462,50.3l-.162.539,2.75-.539" transform="translate(-51.3 -37.357)"/><path class="a" d="M53.865,49.5l-2.265.431h2.589" transform="translate(-51.438 -36.989)"/><path class="a" d="M51.87,49.5l-.27.431,2.265-.431" transform="translate(-51.438 -36.989)"/><path class="a" d="M53.664,48.9l-1.564.324h2" transform="translate(-51.669 -36.712)"/><path class="a" d="M52.585,48.9l-.485.324,1.564-.324" transform="translate(-51.669 -36.712)"/><path class="a" d="M53.539,48.7,53,48.808h1.079" transform="translate(-52.083 -36.62)"/><path class="a" d="M53.1,46.9l.485.054.485-.054" transform="translate(-52.129 -35.791)"/><path class="a" d="M54.5,46.3l-1.4.324h.971" transform="translate(-52.129 -35.514)"/><path class="a" d="M52.3,46.3l.431.324,1.4-.324" transform="translate(-51.761 -35.514)"/><path class="a" d="M54.4,45.6l-2.1.377h1.834" transform="translate(-51.761 -35.192)"/><path class="a" d="M51.8,45.6l.27.377,2.1-.377" transform="translate(-51.53 -35.192)"/><path class="a" d="M54.281,44.6l-2.481.539h2.373" transform="translate(-51.53 -34.731)"/><path class="a" d="M51.6,44.6l.108.539,2.481-.539" transform="translate(-51.438 -34.731)"/><path class="a" d="M54.189,28.8,51.6,37.321h2.589" transform="translate(-51.438 -27.452)"/><path class="a" d="M51.6,28.8v8.521L54.189,28.8" transform="translate(-51.438 -27.452)"/><path class="a" d="M54.081,27.9l-2.481.485h2.589" transform="translate(-51.438 -27.037)"/><path class="a" d="M51.708,27.9l-.108.485,2.481-.485" transform="translate(-51.438 -27.037)"/><path class="a" d="M53.9,27.1l-2.1.431h2.373" transform="translate(-51.53 -26.669)"/><path class="a" d="M52.07,27.1l-.27.431,2.1-.431" transform="translate(-51.53 -26.669)"/><path class="a" d="M53.7,26.5l-1.4.324h1.834" transform="translate(-51.761 -26.392)"/><path class="a" d="M52.731,26.5l-.431.324,1.4-.324" transform="translate(-51.761 -26.392)"/><path class="a" d="M53.585,26.3l-.485.108h.971" transform="translate(-52.129 -26.3)"/></g><path class="a" d="M51.8,68.9l1.294.054,1.24-.054" transform="translate(-37.563 -37.945)"/><path class="a" d="M68.657,63.8,66.5,65.094l1.079-.593" transform="translate(-44.336 -35.596)"/><path class="a" d="M37.8,63.8l1.079.7,1.132.593" transform="translate(-31.113 -35.596)"/><path class="a" d="M55.251,63.4,51.8,66.366h2.535" transform="translate(-37.563 -35.411)"/><path class="a" d="M50.2,63.4l.863,2.966L54.514,63.4" transform="translate(-36.826 -35.411)"/><path class="a" d="M55.593,63l-5.393.216h4.314" transform="translate(-36.826 -35.227)"/><path class="a" d="M48,63l1.186.216L54.579,63" transform="translate(-35.812 -35.227)"/><path class="a" d="M42.222,62.4l-4.422.755,2.211,1.294" transform="translate(-31.113 -34.951)"/><path class="a" d="M46,62.4l1.079.324h6.579" transform="translate(-34.891 -34.951)"/><path class="a" d="M54.844,62.4H46l7.658.324" transform="translate(-34.891 -34.951)"/><path class="a" d="M62.4,62.4l2.211,2.049,2.157-1.294" transform="translate(-42.447 -34.951)"/><path class="a" d="M54.2,60.2l4.422,1.186,4.368.755" transform="translate(-38.669 -33.937)"/><path class="a" d="M50.422,60.2,46,61.386h8.844" transform="translate(-34.891 -33.937)"/><path class="a" d="M46.644,60.2,37.8,62.141l4.422-.755" transform="translate(-31.113 -33.937)"/><path class="a" d="M55.872,59.9l-1.672.162L62.99,62" transform="translate(-38.669 -33.799)"/><path class="a" d="M44.972,59.9,37.8,62l8.844-1.941" transform="translate(-31.113 -33.799)"/><path class="a" d="M58.918,59.2l-1.618.377,7.119,2.1" transform="translate(-40.097 -33.476)"/><path class="a" d="M43.3,59.2l-5.5,2.481,7.172-2.1" transform="translate(-31.113 -33.476)"/><path class="a" d="M65.1,58.4l-4.8.431,5.5,2.481" transform="translate(-41.479 -33.108)"/><path class="a" d="M38.5,58.4l-.7,2.912,5.5-2.481" transform="translate(-31.113 -33.108)"/><path class="a" d="M61.864,58l-1.564.647,4.8-.431" transform="translate(-41.479 -32.923)"/><path class="a" d="M42.336,58l-3.236.216,4.8.431" transform="translate(-31.712 -32.923)"/><path class="a" d="M37.4,56.9l.917.809,3.236-.216" transform="translate(-30.929 -32.417)"/><path class="a" d="M67.3,56.9l-4.1.593,3.236.216" transform="translate(-42.815 -32.417)"/><path class="a" d="M64.656,56.3l-1.456.917,4.1-.593" transform="translate(-42.815 -32.14)"/><path class="a" d="M40.15,56.3l-2.75.324,4.152.593" transform="translate(-30.929 -32.14)"/><path class="a" d="M69.351,55.2l-3.451.593,2.642.324" transform="translate(-44.059 -31.633)"/><path class="a" d="M36,55.2l.755.917,2.75-.324" transform="translate(-30.284 -31.633)"/><path class="a" d="M29.2,54.5l.647,1.132,3.02-.755" transform="translate(-27.151 -31.311)"/><path class="a" d="M75.913,54.5l-3.613.377,2.966.755" transform="translate(-47.008 -31.311)"/><path class="a" d="M68.3,54.3l2.157.485,3.613-.377" transform="translate(-45.165 -31.219)"/><path class="a" d="M67.194,54.3,65.9,55.379l3.451-.593" transform="translate(-44.059 -31.219)"/><path class="a" d="M35.078,54.3l-5.878.108,3.667.377" transform="translate(-27.151 -31.219)"/><path class="a" d="M38.211,54.3,36,54.785l3.505.593" transform="translate(-30.284 -31.219)"/><path class="a" d="M74.664,52.5l-6.364.971,5.77.108" transform="translate(-45.165 -30.389)"/><path class="a" d="M28.2,52.5l.539,1.079,5.878-.108" transform="translate(-26.69 -30.389)"/><path class="a" d="M69.379,51.9,68.3,53.194l6.364-.971" transform="translate(-45.165 -30.113)"/><path class="a" d="M33.485,51.9l-5.285.324,6.417.971" transform="translate(-26.69 -30.113)"/><path class="a" d="M71.163,49.2,70.3,50.656l5.285.324" transform="translate(-46.086 -28.869)"/><path class="a" d="M32.568,49.2,28.2,50.98l5.285-.324" transform="translate(-26.69 -28.869)"/><path class="a" d="M74.219,48.4l-2.319.431,4.422,1.78" transform="translate(-46.823 -28.501)"/><path class="a" d="M30.249,48.4,28.2,50.611l4.368-1.78" transform="translate(-26.69 -28.501)"/><path class="a" d="M72.547,46.3,71.9,47.864l2.319-.431" transform="translate(-46.823 -27.533)"/><path class="a" d="M33.672,46.3,32,47.432l2.319.431" transform="translate(-28.441 -27.533)"/><path class="a" d="M31.4,46.3l.324,1.132L33.4,46.3" transform="translate(-28.164 -27.533)"/><path class="a" d="M75.2,46.3H73.1l1.672,1.132" transform="translate(-47.376 -27.533)"/><path class="a" d="M75.419,44.2,73.1,45.332h2.1" transform="translate(-47.376 -26.566)"/><path class="a" d="M30.9,44.2l.27,1.132h2" transform="translate(-27.934 -26.566)"/><path class="a" d="M73.531,43.3,73.1,44.918l2.319-1.132" transform="translate(-47.376 -26.151)"/><path class="a" d="M32.787,43.3l-1.887.485,2.265,1.132" transform="translate(-27.934 -26.151)"/><path class="a" d="M78.754,42.5l-4.854.431,1.887.485" transform="translate(-47.745 -25.782)"/><path class="a" d="M25.5,42.5l2.912.917,1.887-.485" transform="translate(-25.446 -25.782)"/><path class="a" d="M78.807,40.2,73.9,41.872l4.854-.431" transform="translate(-47.745 -24.723)"/><path class="a" d="M25.4,40.2l.054,1.24,4.8.431" transform="translate(-25.4 -24.723)"/><path class="a" d="M74.062,40.2,73.9,41.872,78.807,40.2" transform="translate(-47.745 -24.723)"/><path class="a" d="M30.146,40.2H25.4l4.854,1.672" transform="translate(-25.4 -24.723)"/><path class="a" d="M78.892,37.9,74.2,39.14h4.746" transform="translate(-47.883 -23.663)"/><path class="a" d="M25.454,37.9,25.4,39.14h4.746" transform="translate(-25.4 -23.663)"/><path class="a" d="M73.9,37l.162,1.726,4.692-1.24" transform="translate(-47.745 -23.248)"/><path class="a" d="M30.3,37l-4.8.485,4.692,1.24" transform="translate(-25.446 -23.248)"/><path class="a" d="M75.787,36.2l-1.887.431,4.854.485" transform="translate(-47.745 -22.88)"/><path class="a" d="M28.412,36.2l-2.912.917,4.8-.485" transform="translate(-25.446 -22.88)"/><path class="a" d="M75.572,34,73.9,35.618l1.887-.431" transform="translate(-47.745 -21.866)"/><path class="a" d="M31.17,34l-.27,1.186,1.887.431" transform="translate(-27.934 -21.866)"/><path class="a" d="M73.1,34l.431,1.618L75.2,34" transform="translate(-47.376 -21.866)"/><path class="a" d="M33.4,34h-2l1.618,1.618" transform="translate(-28.164 -21.866)"/><path class="a" d="M74.772,32,73.1,33.079h2.1" transform="translate(-47.376 -20.945)"/><path class="a" d="M31.724,32,31.4,33.079h2" transform="translate(-28.164 -20.945)"/><path class="a" d="M71.9,31.1l.647,1.564,1.672-1.079" transform="translate(-46.823 -20.53)"/><path class="a" d="M34.319,31.1,32,31.585l1.672,1.079" transform="translate(-28.441 -20.53)"/><path class="a" d="M70.3,28.5l.863,1.4,2.319.485" transform="translate(-46.086 -19.332)"/><path class="a" d="M35.236,28.5,32,30.387l2.319-.485" transform="translate(-28.441 -19.332)"/><path class="a" d="M75.639,27.9l-5.339.324,3.182,1.887" transform="translate(-46.086 -19.056)"/><path class="a" d="M28.2,27.9l2.049,2.211,3.236-1.887" transform="translate(-26.69 -19.056)"/><path class="a" d="M68.3,26.1l1.079,1.294,5.339-.324" transform="translate(-45.165 -18.227)"/><path class="a" d="M34.617,26.1l-6.417.971,5.285.324" transform="translate(-26.69 -18.227)"/><path class="a" d="M28.739,25.8,28.2,26.932l6.417-.971" transform="translate(-26.69 -18.088)"/><path class="a" d="M74.07,25.8l-5.77.162,6.417.971" transform="translate(-45.165 -18.088)"/><path class="a" d="M70.457,25.1l-2.157.539,5.77-.162" transform="translate(-45.165 -17.766)"/><path class="a" d="M32.867,25.1l-3.667.377,5.878.162" transform="translate(-27.151 -17.766)"/><path class="a" d="M65.9,24l1.294,1.132,2.157-.539" transform="translate(-44.059 -17.259)"/><path class="a" d="M39.505,24,36,24.593l2.211.539" transform="translate(-30.284 -17.259)"/><path class="a" d="M29.847,23.8,29.2,24.879l3.667-.377" transform="translate(-27.151 -17.167)"/><path class="a" d="M75.266,23.8l-2.966.7,3.613.377" transform="translate(-47.008 -17.167)"/><path class="a" d="M36.755,23.5,36,24.363l3.505-.593" transform="translate(-30.284 -17.029)"/><path class="a" d="M68.542,23.5l-2.642.27,3.451.593" transform="translate(-44.059 -17.029)"/><path class="a" d="M63.2,22.5l1.456.809,2.642-.27" transform="translate(-42.815 -16.568)"/><path class="a" d="M41.552,22.5l-4.152.539,2.75.27" transform="translate(-30.929 -16.568)"/><path class="a" d="M66.436,22.1l-3.236.216,4.1.539" transform="translate(-42.815 -16.384)"/><path class="a" d="M38.317,22.1l-.917.755,4.152-.539" transform="translate(-30.929 -16.384)"/><path class="a" d="M60.3,21.3l1.564.647,3.236-.216" transform="translate(-41.479 -16.015)"/><path class="a" d="M43.9,21.3l-4.8.431,3.236.216" transform="translate(-31.712 -16.015)"/><path class="a" d="M57.3,20.5l1.618.431,4.8.431" transform="translate(-40.097 -15.646)"/><path class="a" d="M45.571,20.5l-6.471.863,4.8-.431" transform="translate(-31.712 -15.646)"/><path class="a" d="M46,18l4.422,1.186,1.672.162" transform="translate(-34.891 -14.495)"/><path class="a" d="M46,18l6.094,1.348,6.417.863" transform="translate(-34.891 -14.495)"/><path class="a" d="M46,18l2.75,1.348,1.672-.162" transform="translate(-34.891 -14.495)"/><path class="a" d="M42.821,18,39.1,20.211l6.471-.863" transform="translate(-31.712 -14.495)"/><path class="a" d="M54.844,18H46l12.511,2.211" transform="translate(-34.891 -14.495)"/><path class="a" d="M47.079,17.4,46,17.724h8.844" transform="translate(-34.891 -14.218)"/><path class="a" d="M54.579,17.4H48l7.766.324" transform="translate(-35.812 -14.218)"/><path class="a" d="M53.5,16.9l-5.5.27h6.579" transform="translate(-35.812 -13.988)"/><path class="a" d="M49.186,16.9,48,17.17l5.5-.27" transform="translate(-35.812 -13.988)"/><path class="a" d="M66.768,16.6l-4.368.755,3.667,2.211" transform="translate(-42.447 -13.85)"/><path class="a" d="M37.8,16.6l.7,2.966,3.721-2.211" transform="translate(-31.113 -13.85)"/><path class="a" d="M38.825,15.4l-1.025.647,4.422.755" transform="translate(-31.113 -13.297)"/><path class="a" d="M65.69,15.2,62.4,16.71l4.368-.755" transform="translate(-42.447 -13.205)"/><path class="a" d="M40.886,14.3l-1.186.593,3.4,1.4" transform="translate(-31.988 -12.79)"/><path class="a" d="M64.611,14.3l-2.211,2,3.29-1.51" transform="translate(-42.447 -12.79)"/><path class="a" d="M53.6,11.5l-3.4,2.912h4.314" transform="translate(-36.826 -11.5)"/><path class="a" d="M51.063,11.5,50.2,14.412,53.6,11.5" transform="translate(-36.826 -11.5)"/></g></svg>