<svg xmlns="http://www.w3.org/2000/svg" width="36.294" height="28.043" viewBox="0 0 36.294 28.043"><defs><style>.a{fill:#f6eb16;}</style></defs><g transform="translate(0 0)"><g transform="translate(21.319 20.432)"><path class="a" d="M78.583,56.1a3.276,3.276,0,0,0-3.074-2.8l-.054,1.4a1.808,1.808,0,1,1-1.887,1.78,2.336,2.336,0,0,1,.054-.27l-1.456-.054a2.043,2.043,0,0,0,0,.809,3.182,3.182,0,0,0,1.24,2.157,2.671,2.671,0,0,0,2,.593,2.88,2.88,0,0,0,2.535-1.24,3.385,3.385,0,0,0,.647-1.941Z" transform="translate(-64.147 -53.293)"/><path class="a" d="M75.436,54.7h0l.054-1.4H74.95a3.259,3.259,0,0,0-2.75,2.858l1.456.054A1.8,1.8,0,0,1,75.436,54.7Z" transform="translate(-64.182 -53.293)"/><path class="a" d="M62.384,56.482a1.834,1.834,0,1,1-2.049-1.78V53.3h-.216a3.264,3.264,0,1,0,3.02,5.231,3.391,3.391,0,0,0,.647-2.265l-1.51-.054C62.384,56.266,62.384,56.374,62.384,56.482Z" transform="translate(-57.332 -53.293)"/><path class="a" d="M63,53.294v1.4c.054,0,.162-.054.216-.054a1.744,1.744,0,0,1,1.726,1.51l1.51.054V56.1A3.221,3.221,0,0,0,63,53.294Z" transform="translate(-59.943 -53.287)"/></g><path class="a" d="M39.321,41.393a12.026,12.026,0,1,1,0-24.052,11.722,11.722,0,0,1,8.413,3.451h2.75A14.33,14.33,0,0,0,39.321,15.4a14.021,14.021,0,1,0,0,28.043,12.787,12.787,0,0,0,2.265-.162C40.4,43.173,39.321,41.393,39.321,41.393Z" transform="translate(-21.255 -15.4)"/><path class="a" d="M17.8,30.327a17.815,17.815,0,0,0,5.447,12.889l1.51-1.51a15.868,15.868,0,0,1-4.8-11.379A15.655,15.655,0,0,1,24.595,19.11l-1.51-1.51A17.691,17.691,0,0,0,17.8,30.327" transform="translate(-17.8 -16.414)"/><path class="a" d="M76.646,21.56A18.924,18.924,0,0,0,73.41,17.3L71.9,18.81a15.1,15.1,0,0,1,2.211,2.7Z" transform="translate(-42.725 -16.275)"/><g transform="translate(8.521 8.736)"><path class="a" d="M58.564,41.454a1.5,1.5,0,0,0-.539-.054H57v1.564h1.079a1.6,1.6,0,0,0,.539-.108.552.552,0,0,0,.324-.27,1,1,0,0,0,.108-.377,1.077,1.077,0,0,0-.108-.485A.624.624,0,0,0,58.564,41.454Z" transform="translate(-44.381 -36.115)"/><path class="a" d="M57.863,38.148a1.016,1.016,0,0,0,.431-.108.443.443,0,0,0,.27-.27.8.8,0,0,0,.054-.377.684.684,0,0,0-.054-.324.538.538,0,0,0-.27-.216,1.051,1.051,0,0,0-.431-.054H57v1.348h.27A1.1,1.1,0,0,0,57.863,38.148Z" transform="translate(-44.381 -33.996)"/><path class="a" d="M33.6,31.6v9.923H61.373V31.6Zm7.927,2.912H38.615v1.079h2.7v1.186h-2.7v1.564h2.912v1.186H37v-6.2h4.53Zm8.251,3.937a1.686,1.686,0,0,1-.485.593,2.732,2.732,0,0,1-.809.377,5.722,5.722,0,0,1-1.132.108H44.6v-6.2h2.427a6.562,6.562,0,0,1,1.132.054,3.488,3.488,0,0,1,.7.216,1.18,1.18,0,0,1,.539.485,1.493,1.493,0,0,1,.162.7,1.3,1.3,0,0,1-.216.809,1.447,1.447,0,0,1-.7.539h0a2.051,2.051,0,0,1,.971.485,1.583,1.583,0,0,1,.377,1.025A2.92,2.92,0,0,1,49.778,38.449Zm7.334.647a3.6,3.6,0,0,1-2.1.593,4.855,4.855,0,0,1-1.348-.162c-.377-.108-.755-.216-1.079-.324v-1.51h.108a2.853,2.853,0,0,0,1.132.593,5.032,5.032,0,0,0,1.186.216h.377a.779.779,0,0,0,.377-.108,1.128,1.128,0,0,0,.324-.216.456.456,0,0,0,.108-.324.49.49,0,0,0-.162-.377,1.016,1.016,0,0,0-.485-.216c-.216-.054-.485-.108-.755-.162s-.485-.108-.755-.162a1.958,1.958,0,0,1-1.132-.7,1.711,1.711,0,0,1-.324-1.079,1.564,1.564,0,0,1,.809-1.4,3.346,3.346,0,0,1,2-.539,9.627,9.627,0,0,1,1.24.108,2.862,2.862,0,0,1,1.025.324v1.4H57.49a2.485,2.485,0,0,0-.917-.485,2.816,2.816,0,0,0-1.132-.216.918.918,0,0,0-.377.054,1,1,0,0,0-.377.108.538.538,0,0,0-.27.216c-.054.108-.108.162-.108.27a.49.49,0,0,0,.162.377,1.524,1.524,0,0,0,.7.216l.647.162c.216.054.431.108.7.162a2.615,2.615,0,0,1,1.079.647,1.711,1.711,0,0,1,.324,1.079A2.009,2.009,0,0,1,57.113,39.1Z" transform="translate(-33.6 -31.6)"/></g></g></svg>