<svg xmlns="http://www.w3.org/2000/svg" width="38.505" height="29.121" viewBox="0 0 38.505 29.121"><defs><style>.a{fill:#f6eb16;}</style></defs><g transform="translate(0 0)"><path class="a" d="M66.611,26.764A5.938,5.938,0,0,0,66.234,14.9a6.849,6.849,0,0,0-1.834.27l.324,2a3.868,3.868,0,0,1,1.564-.324,3.937,3.937,0,1,1,0,7.873" transform="translate(-39.647 -14.091)"/><path class="a" d="M80.562,39.591A3.964,3.964,0,0,0,80.4,31.88l.863-1.78a6,6,0,0,1,4.26,5.662,5.933,5.933,0,0,1-3.991,5.609" transform="translate(-47.018 -21.094)"/><path class="a" d="M64.585,53.391a3.868,3.868,0,0,0,1.564.324,3.937,3.937,0,1,0,0-7.873l.485-1.941a5.914,5.914,0,0,1-.485,11.81,5.316,5.316,0,0,1-2.049-.377" transform="translate(-39.509 -27.452)"/><path class="a" d="M36.144,22.872A1.672,1.672,0,1,1,34.472,21.2,1.68,1.68,0,0,1,36.144,22.872Z" transform="translate(-25.088 -16.994)"/><ellipse class="a" cx="1.672" cy="1.672" rx="1.672" ry="1.672" transform="translate(14.021 4.206)"/><path class="a" d="M36.144,33.672A1.672,1.672,0,1,1,34.472,32,1.68,1.68,0,0,1,36.144,33.672Z" transform="translate(-25.088 -21.969)"/><ellipse class="a" cx="1.672" cy="1.672" rx="1.672" ry="1.672" transform="translate(14.021 10.031)"/><path class="a" d="M36.144,54.972A1.672,1.672,0,1,1,34.472,53.3,1.68,1.68,0,0,1,36.144,54.972Z" transform="translate(-25.088 -31.783)"/><ellipse class="a" cx="1.672" cy="1.672" rx="1.672" ry="1.672" transform="translate(14.021 21.517)"/><path class="a" d="M36.144,44.772A1.672,1.672,0,1,1,34.472,43.1,1.646,1.646,0,0,1,36.144,44.772Z" transform="translate(-25.088 -27.083)"/><ellipse class="a" cx="1.672" cy="1.672" rx="1.672" ry="1.672" transform="translate(14.021 16.017)"/><g transform="translate(0 6.148)"><path class="a" d="M18.5,32.986l.431,1.941L24.378,33.8v-2Z" transform="translate(-18.5 -28.025)"/><path class="a" d="M59.178,26.741,58.8,24.8l-5.5,1.132v2Z" transform="translate(-34.533 -24.8)"/><path class="a" d="M53.3,51.8l5.5,1.132.377-1.941L53.3,49.8Z" transform="translate(-34.533 -36.318)"/><path class="a" d="M18.931,42.8,18.5,44.741l5.878,1.186v-2Z" transform="translate(-18.5 -33.093)"/></g><rect class="a" width="10.678" height="2.373" transform="translate(7.28)"/><rect class="a" width="10.678" height="2.373" transform="translate(7.28 26.748)"/></g></svg>