<svg xmlns="http://www.w3.org/2000/svg" width="38.505" height="29.121" viewBox="0 0 38.505 29.121"><defs><style>.a{fill:#ed2224;}</style></defs><g transform="translate(0 0)"><path class="a" d="M66.211,26.764A5.938,5.938,0,0,0,65.834,14.9,6.849,6.849,0,0,0,64,15.17l.324,2a3.868,3.868,0,0,1,1.564-.324,3.937,3.937,0,1,1,0,7.873" transform="translate(-39.247 -14.091)"/><path class="a" d="M80.162,39.591A3.964,3.964,0,0,0,80,31.88l.863-1.78a6,6,0,0,1,4.26,5.662,5.933,5.933,0,0,1-3.991,5.609" transform="translate(-46.618 -21.094)"/><path class="a" d="M64.085,53.391a3.868,3.868,0,0,0,1.564.324,3.937,3.937,0,1,0,0-7.873l.485-1.941a5.914,5.914,0,0,1-.485,11.81,5.315,5.315,0,0,1-2.049-.377" transform="translate(-39.063 -27.452)"/><path class="a" d="M35.744,22.872A1.672,1.672,0,1,1,34.072,21.2,1.68,1.68,0,0,1,35.744,22.872Z" transform="translate(-24.688 -16.994)"/><ellipse class="a" cx="1.672" cy="1.672" rx="1.672" ry="1.672" transform="translate(13.967 4.206)"/><path class="a" d="M35.744,33.672A1.672,1.672,0,1,1,34.072,32,1.68,1.68,0,0,1,35.744,33.672Z" transform="translate(-24.688 -21.969)"/><ellipse class="a" cx="1.672" cy="1.672" rx="1.672" ry="1.672" transform="translate(13.967 10.031)"/><path class="a" d="M35.744,54.972A1.672,1.672,0,1,1,34.072,53.3,1.68,1.68,0,0,1,35.744,54.972Z" transform="translate(-24.688 -31.783)"/><ellipse class="a" cx="1.672" cy="1.672" rx="1.672" ry="1.672" transform="translate(13.967 21.517)"/><path class="a" d="M35.744,44.772A1.672,1.672,0,1,1,34.072,43.1,1.646,1.646,0,0,1,35.744,44.772Z" transform="translate(-24.688 -27.083)"/><ellipse class="a" cx="1.672" cy="1.672" rx="1.672" ry="1.672" transform="translate(13.967 16.017)"/><g transform="translate(0 6.148)"><path class="a" d="M18.1,32.986l.377,1.941L23.924,33.8v-2Z" transform="translate(-18.1 -28.025)"/><path class="a" d="M58.778,26.741,58.347,24.8,52.9,25.932v2Z" transform="translate(-34.133 -24.8)"/><path class="a" d="M52.9,51.8l5.447,1.132.431-1.941L52.9,49.8Z" transform="translate(-34.133 -36.318)"/><path class="a" d="M18.477,42.8,18.1,44.741l5.824,1.186v-2Z" transform="translate(-18.1 -33.093)"/></g><rect class="a" width="10.678" height="2.373" transform="translate(7.28)"/><rect class="a" width="10.678" height="2.373" transform="translate(7.28 26.748)"/></g></svg>