<svg xmlns="http://www.w3.org/2000/svg" width="31.871" height="32.411" viewBox="0 0 31.871 32.411"><defs><style>.a{fill:#f6eb16;}</style></defs><g transform="translate(0 0)"><g transform="translate(0 25.832)"><path class="a" d="M30.048,63.978H28.484l-.431-1.186H25.841l-.377,1.186H23.9L26.111,58.1h1.78Zm-2.373-2.265-.7-2.1-.7,2.1Z" transform="translate(-23.9 -57.507)"/><path class="a" d="M40.892,63.471H39.436v-.485a3.533,3.533,0,0,1-.7.431,1.722,1.722,0,0,1-.755.162,1.537,1.537,0,0,1-1.294-.647A2.677,2.677,0,0,1,36.2,61.26a3.14,3.14,0,0,1,.162-1.025,3.438,3.438,0,0,1,.431-.755A1.472,1.472,0,0,1,37.44,59a2.117,2.117,0,0,1,.755-.162,2.011,2.011,0,0,1,.647.108,3.718,3.718,0,0,1,.539.216V57h1.456v6.471Zm-1.4-1.186V60.074c-.108-.054-.216-.054-.324-.108-.108,0-.216-.054-.324-.054a1.006,1.006,0,0,0-.863.377,1.6,1.6,0,0,0-.27.971,1.621,1.621,0,0,0,.216.971.77.77,0,0,0,.7.27,1.34,1.34,0,0,0,.431-.054A3.717,3.717,0,0,0,39.49,62.285Z" transform="translate(-29.567 -57)"/><path class="a" d="M52.539,62.2a1.722,1.722,0,0,1-.162.755,1.18,1.18,0,0,1-.485.539,1.992,1.992,0,0,1-.755.377,5.563,5.563,0,0,1-1.079.108H47.2V58.1h2.535a4.977,4.977,0,0,1,1.025.054,3.04,3.04,0,0,1,.647.216,1.273,1.273,0,0,1,.485.431,1.436,1.436,0,0,1,.162.647,1.238,1.238,0,0,1-.216.755,1.472,1.472,0,0,1-.647.485v.054a1.4,1.4,0,0,1,.917.485A1.171,1.171,0,0,1,52.539,62.2Zm-2-2.427a.4.4,0,0,0-.054-.27.538.538,0,0,0-.27-.216,1.051,1.051,0,0,0-.431-.054H48.71v1.24h1.079a3.041,3.041,0,0,0,.377-.054.584.584,0,0,0,.27-.216A.815.815,0,0,0,50.544,59.772Zm.377,2.373a1.016,1.016,0,0,0-.108-.431c-.054-.108-.216-.162-.377-.216a1.2,1.2,0,0,0-.485-.054H48.71V62.9H50a1.288,1.288,0,0,0,.485-.108.552.552,0,0,0,.324-.27A.455.455,0,0,0,50.921,62.145Z" transform="translate(-34.635 -57.507)"/><path class="a" d="M60.656,63.517H59.2V57.1h1.456Z" transform="translate(-40.163 -57.046)"/><path class="a" d="M68.992,64.738H67.536v-.485a2.385,2.385,0,0,1-.809.431,2.324,2.324,0,0,1-.917.162,1.545,1.545,0,0,1-1.132-.431,1.712,1.712,0,0,1-.377-1.24v-3.02h1.456v2.858a.779.779,0,0,0,.108.377c.054.108.27.162.378.216a1.051,1.051,0,0,0,.431.054,1.34,1.34,0,0,0,.431-.054,2.254,2.254,0,0,0,.539-.216V60.1h1.348Z" transform="translate(-42.513 -58.428)"/><path class="a" d="M78.9,62.789H75.61a1.147,1.147,0,0,0,.377.809,1.983,1.983,0,0,0,1.079.27,2.236,2.236,0,0,0,.863-.162,3.591,3.591,0,0,0,.647-.324h.162v1.132a8.319,8.319,0,0,1-.917.27,4.837,4.837,0,0,1-.971.108A3.2,3.2,0,0,1,74.8,64.3a2.057,2.057,0,0,1-.7-1.726,2.127,2.127,0,0,1,.7-1.726,2.586,2.586,0,0,1,1.887-.647,2.1,2.1,0,0,1,1.618.539,2.128,2.128,0,0,1,.539,1.564v.485Zm-1.456-.809a1.2,1.2,0,0,0-.216-.7.86.86,0,0,0-.647-.216,1.084,1.084,0,0,0-.7.216,1.219,1.219,0,0,0-.324.7Z" transform="translate(-47.028 -58.474)"/></g><path class="a" d="M58.191,14.87c-.485-3.236-3.074-4.8-3.937-5.393l-.647.863a7.354,7.354,0,0,1,2.8,5.177V28.46c0,.755-.054.971-.324,1.294a.868.868,0,0,1-.647.431,1.909,1.909,0,0,1-.863-.324,1.968,1.968,0,0,1-.377-1.24V19.886c0-1.51-.216-1.941-.863-2.427A3.694,3.694,0,0,0,51.5,16.7V10.556A1.51,1.51,0,0,0,49.94,9.1H40.664A1.51,1.51,0,0,0,39.1,10.556V30.725a1.51,1.51,0,0,0,1.564,1.456h9.222a1.51,1.51,0,0,0,1.564-1.456V17.782a2.343,2.343,0,0,1,1.186.539,1.831,1.831,0,0,1,.539,1.564v8.682a3.355,3.355,0,0,0,.593,2.211,2.158,2.158,0,0,0,1.564.593,2.545,2.545,0,0,0,1.672-.7,4.008,4.008,0,0,0,.431-2.211V15.248Zm-7.874,1.941a.852.852,0,0,1-.863.863H41.2a.852.852,0,0,1-.863-.863V11.149a.852.852,0,0,1,.863-.863h8.251a.852.852,0,0,1,.863.863v5.662Z" transform="translate(-30.903 -9.1)"/></g></svg>