<svg xmlns="http://www.w3.org/2000/svg" width="31.495" height="29.337" viewBox="0 0 31.495 29.337"><defs><style>.a,.b{fill:#f6eb16;}.b{fill-rule:evenodd;}</style></defs><g transform="translate(0 0)"><path class="a" d="M44.606,49.251,36.948,36.2l-1.348.755,7.658,13.051Z" transform="translate(-28.428 -23.149)"/><path class="b" d="M37.777,32.3h-.971l-.216.054h-.377L36,32.408h-.162l-.216.054h-.162l-.216.054-.162.054h-.216l-.162.054-.216.054-.216.054-.162.054h-.162l-.216.054-.162.054-.216.054L33.193,33l-.162.108-.216.054-.162.054-.216.054-.162.054-.162.108-.162.054-.216.054-.162.108-.162.054-.162.108-.162.054-.216.108-.162.054-.162.108-.162.108-.162.054-.162.108-.162.108-.162.108-.162.108-.162.108-.162.054L29.095,35l-.108.108-.162.162-.162.054-.162.108-.162.162-.108.108-.162.108-.162.108-.108.162-.162.108-.162.108-.108.108-.162.162-.108.108-.162.162-.108.108-.162.162-.108.108-.108.108-.162.162-.108.162-.108.108-.162.162-.108.162-.108.108-.108.162-.108.162-.162.162-.108.162-.108.108L25,39.095l-.108.162-.054.162-.108.162-.108.162-.108.162-.108.162-.108.162-.054.162-.108.162-.108.162-.054.162-.108.162-.054.162-.108.216-.054.162-.108.162-.054.162-.054.216-.108.162-.054.162-.054.162-.054.216-.108.162L23,43.14l-.054.216-.054.162-.054.216-.054.162-.054.216v.162l-.054.216-.054.162-.054.216v.162l-.054.216-.054.162v.216l-.054.162V46l-.054.162v.593l-.054.216v1.025l1.456-.054v-.863l.054-.216v-.324l.054-.216V46l.054-.162V45.62l.054-.162.054-.162v-.162l.054-.162v-.216l.054-.162.054-.162.054-.162.054-.162v-.162l.054-.162.054-.162.054-.162.108-.162.054-.162.054-.162.054-.162.054-.162.054-.162.054-.162L25,42.169l.054-.162.108-.162.054-.162.054-.162.108-.108.054-.162.108-.162.054-.162.108-.108.054-.162.108-.162.108-.108.054-.162.108-.162.108-.108.108-.162.108-.162.054-.108.108-.162.108-.108.108-.108.108-.162.108-.108.108-.162.108-.108.108-.162.162-.108.108-.108.108-.108.108-.162.108-.108.162-.108.108-.108.108-.108.162-.162.108-.108.108-.108.162-.108.108-.108.162-.108.108-.108.162-.108.108-.108.162-.054.108-.108.162-.108.108-.108.162-.108.162-.054.108-.108.162-.108.162-.054.162-.108.108-.054.162-.108.162-.054.162-.108.162-.054L31.9,35.1l.108-.054L32.169,35l.162-.108.162-.054.162-.054.162-.054.162-.054.162-.054.162-.108.162-.054.162-.054.162-.054h.162l.216-.054.162-.054.162-.054.162-.054h.162l.162-.054.162-.054.162-.054h.216l.162-.054h.162L36,33.864h.377l.162-.054h.377l.162-.054h.755Z" transform="translate(-22.3 -21.353)"/><path class="b" d="M48.458,55.8h.27l.162.054H49l.162.054.108.054h.162l.108.054.162.054.108.054.108.108.108.054.108.108.108.054.108.108.108.108.108.054.108.108.054.108.108.108.054.108.108.162.054.108.054.108.054.162.054.108v.162l.054.108v.162l.054.108v.593l-.054.162v.27l-.054.162-.054.108-.054.108-.054.162-.054.108-.108.108-.054.162-.054.108-.108.108-.054.054-.108.108-.108.108-.108.108-.108.054-.108.108-.108.054-.108.108-.162.054-.108.054-.108.054-.162.054h-.108l-.162.054-.108.054h-.863l-.162-.054h-.162l-.108-.054-.162-.054L47.38,61.3l-.108-.054-.162-.054L47,61.139l-.108-.108-.108-.054-.108-.108-.108-.054-.108-.108-.108-.108-.054-.108-.108-.108-.054-.108-.108-.108-.054-.108-.054-.108-.108-.162-.054-.108v-.162l-.054-.108-.054-.162v-.108l-.054-.162v-.593l.054-.108v-.162l.054-.162v-.108l.054-.162.054-.108.054-.108.054-.162.108-.108.054-.108.054-.108.108-.108.108-.108.054-.108.108-.108.108-.054.108-.108.108-.054.108-.108.162-.054.108-.054.108-.054.162-.054.108-.054.162-.054.108-.054h.27L48.3,55.8Z" transform="translate(-33.035 -32.18)"/><path class="b" d="M32.093,49.042,27.455,46.4,26.7,47.694l4.638,2.642Z" transform="translate(-24.327 -27.849)"/><path class="b" d="M28.448,59.8l-4.692.054-1.456.755v.7h6.148Z" transform="translate(-22.3 -34.022)"/><path class="b" d="M48.214,20.628,43.9,16.907h2.319l-.108-4.854L50.264,12l.054,4.854,2.319-.054Z" transform="translate(-32.252 -12)"/><path class="b" d="M54.162,32.5,54,43.555a5.055,5.055,0,0,1,3.128,4.584c0,.108,11.271.162,11.271.162s.216-6.687-4.692-11.271A18.627,18.627,0,0,0,54.162,32.5Z" transform="translate(-36.905 -21.445)"/></g></svg>