<svg xmlns="http://www.w3.org/2000/svg" width="33.867" height="33.867" viewBox="0 0 33.867 33.867"><defs><style>.a{fill:#f67c14;}.b{fill:#fff;}</style></defs><g transform="translate(-14.4 -14.2)"><g transform="translate(14.4 14.2)"><circle class="a" cx="16.933" cy="16.933" r="16.933" transform="translate(0)"/></g><g transform="translate(17.118 16.918)"><g transform="translate(8.273 8.243)"><ellipse class="b" cx="5.943" cy="5.973" rx="5.943" ry="5.973"/><ellipse class="a" cx="3.196" cy="3.225" rx="3.196" ry="3.225" transform="translate(2.748 2.748)"/></g><g transform="translate(0 13.021)"><path class="b" d="M30.608,67.826v.508a.93.93,0,0,1-.926.926H24.426a.93.93,0,0,1-.926-.926v-.508a.93.93,0,0,1,.926-.926h5.286A.905.905,0,0,1,30.608,67.826Z" transform="translate(-23.5 -66.9)"/><path class="b" d="M101.938,67.826v.508a.93.93,0,0,1-.926.926H95.726a.93.93,0,0,1-.926-.926v-.508a.93.93,0,0,1,.926-.926h5.286A.93.93,0,0,1,101.938,67.826Z" transform="translate(-73.506 -66.9)"/></g><g transform="translate(3.703 3.703)"><path class="b" d="M41.216,86.416l.358.358a.937.937,0,0,1,0,1.314l-3.733,3.733a.937.937,0,0,1-1.314,0l-.358-.358a.937.937,0,0,1,0-1.314L39.9,86.416A.887.887,0,0,1,41.216,86.416Z" transform="translate(-35.9 -71.066)"/><path class="b" d="M91.686,35.969l.358.358a.937.937,0,0,1,0,1.314l-3.7,3.733a.937.937,0,0,1-1.314,0l-.358-.358a.937.937,0,0,1,0-1.314L90.4,35.969A.9.9,0,0,1,91.686,35.969Z" transform="translate(-71.318 -35.7)"/></g><g transform="translate(13.049 0)"><path class="b" d="M68.092,94.6h.538a.93.93,0,0,1,.926.926v5.286a.93.93,0,0,1-.926.926h-.508a.93.93,0,0,1-.926-.926V95.526A.887.887,0,0,1,68.092,94.6Z" transform="translate(-67.195 -73.306)"/><path class="b" d="M68.092,23.3h.538a.93.93,0,0,1,.926.926v5.256a.93.93,0,0,1-.926.926h-.508a.93.93,0,0,1-.926-.926V24.226A.887.887,0,0,1,68.092,23.3Z" transform="translate(-67.195 -23.3)"/></g><g transform="translate(3.703 3.703)"><path class="b" d="M86.669,86.827l.358-.358a.937.937,0,0,1,1.314,0L92.074,90.2a.937.937,0,0,1,0,1.314l-.358.358a.937.937,0,0,1-1.314,0l-3.733-3.733A.937.937,0,0,1,86.669,86.827Z" transform="translate(-71.318 -71.118)"/><path class="b" d="M36.169,36.327l.358-.358a.937.937,0,0,1,1.314,0L41.574,39.7a.937.937,0,0,1,0,1.314l-.358.358a.937.937,0,0,1-1.314,0l-3.733-3.733A.937.937,0,0,1,36.169,36.327Z" transform="translate(-35.9 -35.7)"/></g></g></g></svg>