<?xml version="1.0" encoding="utf-8"?>
<!-- Generator: Adobe Illustrator 22.0.1, SVG Export Plug-In . SVG Version: 6.00 Build 0)  -->
<svg version="1.1" id="Laag_1" xmlns="http://www.w3.org/2000/svg" xmlns:xlink="http://www.w3.org/1999/xlink" x="0px" y="0px"
	 viewBox="0 0 141.7 141.7" style="enable-background:new 0 0 141.7 141.7;" xml:space="preserve">
<style type="text/css">
	.st0{fill:#F67C14;}
	.st1{fill:#FFFFFF;}
</style>
<g>
	<g>
		<circle class="st0" cx="71.1" cy="70.9" r="56.7"/>
	</g>
	<g>
		<g>
			<ellipse class="st1" cx="71.1" cy="70.9" rx="19.9" ry="20"/>
			<ellipse class="st0" cx="71.1" cy="70.9" rx="10.7" ry="10.8"/>
		</g>
		<g>
			<path class="st1" d="M47.3,70v1.7c0,1.7-1.4,3.1-3.1,3.1H26.6c-1.7,0-3.1-1.4-3.1-3.1V70c0-1.7,1.4-3.1,3.1-3.1h17.7
				C46,66.9,47.3,68.3,47.3,70z"/>
			<path class="st1" d="M118.7,70v1.7c0,1.7-1.4,3.1-3.1,3.1H97.9c-1.7,0-3.1-1.4-3.1-3.1V70c0-1.7,1.4-3.1,3.1-3.1h17.7
				C117.3,66.9,118.7,68.3,118.7,70z"/>
		</g>
		<g>
			<path class="st1" d="M53.7,87.1l1.2,1.2c1.2,1.2,1.2,3.2,0,4.4l-12.5,12.5c-1.2,1.2-3.2,1.2-4.4,0l-1.2-1.2
				c-1.2-1.2-1.2-3.2,0-4.4l12.5-12.5C50.5,85.8,52.5,85.8,53.7,87.1z"/>
			<path class="st1" d="M104.1,36.6l1.2,1.2c1.2,1.2,1.2,3.2,0,4.4L92.9,54.7c-1.2,1.2-3.2,1.2-4.4,0l-1.2-1.2
				c-1.2-1.2-1.2-3.2,0-4.4l12.5-12.5C101,35.4,102.9,35.4,104.1,36.6z"/>
		</g>
		<g>
			<path class="st1" d="M70.2,94.6H72c1.7,0,3.1,1.4,3.1,3.1v17.7c0,1.7-1.4,3.1-3.1,3.1h-1.7c-1.7,0-3.1-1.4-3.1-3.1V97.7
				C67.1,96,68.5,94.6,70.2,94.6z"/>
			<path class="st1" d="M70.2,23.3H72c1.7,0,3.1,1.4,3.1,3.1V44c0,1.7-1.4,3.1-3.1,3.1h-1.7c-1.7,0-3.1-1.4-3.1-3.1V26.4
				C67.1,24.7,68.5,23.3,70.2,23.3z"/>
		</g>
		<g>
			<path class="st1" d="M87.3,88.3l1.2-1.2c1.2-1.2,3.2-1.2,4.4,0l12.5,12.5c1.2,1.2,1.2,3.2,0,4.4l-1.2,1.2c-1.2,1.2-3.2,1.2-4.4,0
				L87.3,92.7C86.1,91.5,86.1,89.5,87.3,88.3z"/>
			<path class="st1" d="M36.8,37.8l1.2-1.2c1.2-1.2,3.2-1.2,4.4,0l12.5,12.5c1.2,1.2,1.2,3.2,0,4.4l-1.2,1.2c-1.2,1.2-3.2,1.2-4.4,0
				L36.8,42.2C35.6,41,35.6,39,36.8,37.8z"/>
		</g>
	</g>
</g>
</svg>
