<svg width="30" height="24" viewBox="0 0 30 24" fill="none" xmlns="http://www.w3.org/2000/svg">
<rect x="7" y="4" width="22" height="15" rx="7.5" fill="#FC5F01" stroke="white"/>
<rect x="1.5" y="4.5" width="23" height="14" rx="7" fill="#FC5F01" stroke="white"/>
<path fill-rule="evenodd" clip-rule="evenodd" d="M19.3579 3.27588L24.4236 3.85799L23.181 5.32604C24.7454 6.64089 25.8172 8.54862 26.0004 10.751C26.3096 14.4682 24.0269 17.7888 20.6626 18.9617L20.4894 16.8789C22.7434 15.8686 24.2236 13.5178 24.0073 10.9168C23.8697 9.2625 23.0685 7.834 21.9019 6.83727L20.7689 8.17578L19.3579 3.27588ZM3.36 17.3801C1.91 15.9401 1 13.9501 1 11.7401C1 8.01014 3.55 4.89014 7 4.00014V6.09014C4.67 6.91014 3 9.13014 3 11.7401C3 13.4001 3.68 14.8901 4.76 15.9801L6 14.7401L7 19.7401L2 18.7401L3.36 17.3801Z" fill="white"/>
<path d="M24.4236 3.85799L24.8052 4.18102L25.4088 3.46791L24.4807 3.36126L24.4236 3.85799ZM19.3579 3.27588L19.415 2.77915L18.6699 2.69353L18.8774 3.41424L19.3579 3.27588ZM23.181 5.32604L22.7994 5.00301L22.4752 5.38597L22.8593 5.7088L23.181 5.32604ZM26.0004 10.751L25.5021 10.7925L25.5021 10.7925L26.0004 10.751ZM20.6626 18.9617L20.1643 19.0032L20.2178 19.6463L20.8272 19.4338L20.6626 18.9617ZM20.4894 16.8789L20.2848 16.4226L19.9617 16.5675L19.9911 16.9204L20.4894 16.8789ZM24.0073 10.9168L24.5055 10.8753L24.5055 10.8753L24.0073 10.9168ZM21.9019 6.83727L22.2267 6.45712L21.8447 6.13083L21.5202 6.51424L21.9019 6.83727ZM20.7689 8.17578L20.2884 8.31414L20.547 9.21192L21.1506 8.49881L20.7689 8.17578ZM3.36 17.3801L3.71355 17.7337L4.06833 17.3789L3.71233 17.0254L3.36 17.3801ZM7 4.00014H7.5V3.35479L6.8751 3.51599L7 4.00014ZM7 6.09014L7.16599 6.56178L7.5 6.44423V6.09014H7ZM4.76 15.9801L4.40482 16.3321L4.75837 16.6889L5.11355 16.3337L4.76 15.9801ZM6 14.7401L6.49029 14.6421L6.30707 13.726L5.64645 14.3866L6 14.7401ZM7 19.7401L6.90194 20.2304L7.63738 20.3775L7.49029 19.6421L7 19.7401ZM2 18.7401L1.64645 18.3866L0.985826 19.0472L1.90194 19.2304L2 18.7401ZM24.4807 3.36126L19.415 2.77915L19.3008 3.77261L24.3665 4.35472L24.4807 3.36126ZM23.5626 5.64907L24.8052 4.18102L24.042 3.53496L22.7994 5.00301L23.5626 5.64907ZM26.4987 10.7096C26.3038 8.36699 25.1632 6.33892 23.5027 4.94328L22.8593 5.7088C24.3275 6.94287 25.3306 8.73025 25.5021 10.7925L26.4987 10.7096ZM20.8272 19.4338C24.4006 18.188 26.8273 14.6605 26.4987 10.7096L25.5021 10.7925C25.7918 14.2759 23.6532 17.3896 20.498 18.4896L20.8272 19.4338ZM19.9911 16.9204L20.1643 19.0032L21.1609 18.9203L20.9876 16.8375L19.9911 16.9204ZM23.509 10.9582C23.7072 13.3413 22.3513 15.4964 20.2848 16.4226L20.6939 17.3352C23.1354 16.2408 24.74 13.6944 24.5055 10.8753L23.509 10.9582ZM21.5771 7.21742C22.6503 8.13431 23.383 9.44392 23.509 10.9582L24.5055 10.8753C24.3563 9.08108 23.4867 7.53368 22.2267 6.45712L21.5771 7.21742ZM21.1506 8.49881L22.2835 7.1603L21.5202 6.51424L20.3873 7.85275L21.1506 8.49881ZM18.8774 3.41424L20.2884 8.31414L21.2494 8.03742L19.8384 3.13752L18.8774 3.41424ZM0.5 11.7401C0.5 14.0908 1.46858 16.2064 3.00767 17.7349L3.71233 17.0254C2.35142 15.6738 1.5 13.8095 1.5 11.7401H0.5ZM6.8751 3.51599C3.21068 4.46131 0.5 7.77557 0.5 11.7401H1.5C1.5 8.24471 3.88932 5.31897 7.1249 4.48429L6.8751 3.51599ZM7.5 6.09014V4.00014H6.5V6.09014H7.5ZM3.5 11.7401C3.5 9.3489 5.02982 7.31357 7.16599 6.56178L6.83401 5.6185C4.31018 6.50671 2.5 8.91139 2.5 11.7401H3.5ZM5.11518 15.6282C4.12168 14.6255 3.5 13.2597 3.5 11.7401H2.5C2.5 13.5406 3.23832 15.1548 4.40482 16.3321L5.11518 15.6282ZM5.64645 14.3866L4.40645 15.6266L5.11355 16.3337L6.35355 15.0937L5.64645 14.3866ZM7.49029 19.6421L6.49029 14.6421L5.50971 14.8382L6.50971 19.8382L7.49029 19.6421ZM1.90194 19.2304L6.90194 20.2304L7.09806 19.2499L2.09806 18.2499L1.90194 19.2304ZM3.00645 17.0266L1.64645 18.3866L2.35355 19.0937L3.71355 17.7337L3.00645 17.0266Z" fill="#FC5F01"/>
</svg>
