<svg width="27" height="27" viewBox="0 0 27 27" fill="none" xmlns="http://www.w3.org/2000/svg">
<mask id="mask0" mask-type="alpha" maskUnits="userSpaceOnUse" x="0" y="0" width="27" height="27">
<path d="M13.5 26C20.4036 26 26 20.4036 26 13.5C26 6.59644 20.4036 1 13.5 1C6.59644 1 1 6.59644 1 13.5C1 20.4036 6.59644 26 13.5 26Z" fill="#CBD5E0" stroke="#E2E8F0" stroke-width="2"/>
</mask>
<g mask="url(#mask0)">
<path d="M13.5 26C20.4036 26 26 20.4036 26 13.5C26 6.59644 20.4036 1 13.5 1C6.59644 1 1 6.59644 1 13.5C1 20.4036 6.59644 26 13.5 26Z" fill="#5DBE26" stroke="#E2E8F0" stroke-width="2"/>
<path d="M19.71 10.6658H19.4198V9.94045C19.4198 9.85989 19.3549 9.79589 19.2752 9.79589H18.095V8.4354C18.095 8.19485 17.9001 8 17.6599 8H8.33957C8.09901 8 7.90417 8.19485 7.90417 8.4354V9.7956H6.72453C6.64453 9.7956 6.57968 9.86017 6.57968 9.94074V10.6661H6.28998C6.12971 10.6661 6 10.7961 6 10.9564V12.4797C6 12.64 6.12971 12.77 6.28998 12.77H6.57968V13.4954C6.57968 13.5757 6.64453 13.6402 6.72453 13.6402H7.90417V14.9156H7.89331C7.65276 14.9156 7.4582 15.1104 7.4582 15.3504V17.0429C7.4582 17.1869 7.52905 17.3134 7.63676 17.3929C7.52905 17.472 7.4582 17.5994 7.4582 17.7434V18.4231C7.4582 18.6636 7.65304 18.8582 7.89331 18.8582H8.11159V19.5584C8.11159 19.7187 8.30843 19.8481 8.55184 19.8481H10.0198C10.2629 19.8481 10.4594 19.7187 10.4594 19.5584V18.8576H15.5386V19.5579C15.5386 19.7181 15.7354 19.8476 15.98 19.8476H17.4476C17.6916 19.8476 17.8878 19.7181 17.8878 19.5579V18.8576H18.1061C18.3467 18.8576 18.5418 18.6622 18.5418 18.4225V17.7428C18.5418 17.5988 18.4704 17.4723 18.3627 17.3923C18.4704 17.3137 18.5418 17.1863 18.5418 17.0423V15.3498C18.5418 15.1093 18.3461 14.9147 18.1061 14.9147H18.0958V13.6399H19.2749C19.3552 13.6399 19.4203 13.5751 19.4203 13.4948V12.7694H19.7094C19.8706 12.7694 20 12.6394 20 12.4792V10.9558C20 10.7958 19.8703 10.6658 19.71 10.6658ZM7.90417 13.3502H6.86938V12.7697H7.15907C7.31963 12.7697 7.44934 12.6397 7.44934 12.4797V10.9561C7.44934 10.7958 7.31963 10.6661 7.15907 10.6661H6.86938V10.0859H7.90388L7.90417 13.3502ZM8.5447 18.4945C8.32414 18.4945 8.14558 18.3159 8.14558 18.0957C8.14558 17.8754 8.32471 17.6971 8.5447 17.6971C8.76469 17.6971 8.94353 17.8757 8.94353 18.0957C8.94353 18.3165 8.76497 18.4945 8.5447 18.4945ZM9.60835 18.4945C9.38779 18.4945 9.20952 18.3159 9.20952 18.0957C9.20952 17.8754 9.38836 17.6971 9.60835 17.6971C9.82891 17.6971 10.0072 17.8757 10.0072 18.0957C10.0072 18.3165 9.82891 18.4945 9.60835 18.4945ZM10.0738 16.8506H8.1393V15.6658H10.0738V16.8506ZM15.2969 17.4426H10.7023V16.9155H15.2969V17.4426ZM15.2969 16.6112H10.7023V15.9507H15.2969V16.6112ZM15.2969 15.6458H10.7023V14.9856H15.2969V15.6458ZM15.2969 14.6813H10.7023V14.0213H15.2969V14.6813ZM8.77469 11.962V8.8708H17.2247V11.962H8.77469ZM16.3917 18.4945C16.1702 18.4945 15.9928 18.3159 15.9928 18.0957C15.9928 17.8754 16.1714 17.6971 16.3917 17.6971C16.6119 17.6971 16.7902 17.8757 16.7902 18.0957C16.7902 18.3165 16.6122 18.4945 16.3917 18.4945ZM17.4547 18.4945C17.2345 18.4945 17.0565 18.3159 17.0565 18.0957C17.0565 17.8754 17.235 17.6971 17.4547 17.6971C17.6761 17.6971 17.8541 17.8757 17.8541 18.0957C17.8541 18.3165 17.675 18.4945 17.4547 18.4945ZM17.8598 16.8506H15.9254V15.6658H17.8598V16.8506ZM19.1298 10.6658H18.8395C18.6789 10.6658 18.5498 10.7958 18.5498 10.9561V12.4794C18.5498 12.6397 18.6787 12.7697 18.8395 12.7697H19.1298V13.35H18.0944V10.0856H19.1298V10.6658Z" fill="white"/>
</g>
</svg>
