<svg width="27" height="27" viewBox="0 0 27 27" fill="none" xmlns="http://www.w3.org/2000/svg">
<mask id="mask0" mask-type="alpha" maskUnits="userSpaceOnUse" x="0" y="0" width="27" height="27">
<path d="M13.5 26C20.4036 26 26 20.4036 26 13.5C26 6.59644 20.4036 1 13.5 1C6.59644 1 1 6.59644 1 13.5C1 20.4036 6.59644 26 13.5 26Z" fill="#CBD5E0" stroke="#E2E8F0" stroke-width="2"/>
</mask>
<g mask="url(#mask0)">
<path d="M13.5 26C20.4036 26 26 20.4036 26 13.5C26 6.59644 20.4036 1 13.5 1C6.59644 1 1 6.59644 1 13.5C1 20.4036 6.59644 26 13.5 26Z" fill="#5DBE26" stroke="#E2E8F0" stroke-width="2"/>
<path d="M18.7514 13.25H18.5026V12.6378C18.5026 12.5698 18.4471 12.5158 18.3787 12.5158H17.3671V11.3675C17.3671 11.1645 17.2001 11 16.9942 11H9.00535C8.79916 11 8.63215 11.1645 8.63215 11.3675V12.5155H7.62102C7.55246 12.5155 7.49687 12.57 7.49687 12.638V13.2502H7.24856C7.11118 13.2502 7 13.36 7 13.4952V14.781C7 14.9162 7.11118 15.0259 7.24856 15.0259H7.49687V15.6382C7.49687 15.7059 7.55246 15.7604 7.62102 15.7604H8.63215V16.8369H8.62284C8.41665 16.8369 8.24988 17.0013 8.24988 17.2039V18.6323C8.24988 18.7539 8.31061 18.8607 8.40293 18.9277C8.31061 18.9945 8.24988 19.102 8.24988 19.2236V19.7972C8.24988 20.0003 8.41689 20.1645 8.62284 20.1645H8.80993V20.7555C8.80993 20.8908 8.97865 21 9.18729 21H10.4455C10.6539 21 10.8224 20.8908 10.8224 20.7555V20.164H15.1759V20.755C15.1759 20.8903 15.3446 20.9995 15.5543 20.9995H16.8122C17.0213 20.9995 17.1896 20.8903 17.1896 20.755V20.164H17.3767C17.5829 20.164 17.7501 19.9991 17.7501 19.7967V19.2231C17.7501 19.1016 17.6889 18.9947 17.5966 18.9272C17.6889 18.8609 17.7501 18.7534 17.7501 18.6318V17.2034C17.7501 17.0003 17.5824 16.8361 17.3767 16.8361H17.3679V15.7602H18.3785C18.4473 15.7602 18.5031 15.7055 18.5031 15.6377V15.0255H18.751C18.8891 15.0255 19 14.9157 19 14.7805V13.4948C19 13.3597 18.8888 13.25 18.7514 13.25ZM8.63215 15.5157H7.74518V15.0257H7.99349C8.13111 15.0257 8.24229 14.916 8.24229 14.781V13.495C8.24229 13.3597 8.13111 13.2502 7.99349 13.2502H7.74518V12.7605H8.6319L8.63215 15.5157ZM9.18117 19.8575C8.99212 19.8575 8.83907 19.7068 8.83907 19.5209C8.83907 19.335 8.99261 19.1845 9.18117 19.1845C9.36973 19.1845 9.52303 19.3352 9.52303 19.5209C9.52303 19.7073 9.36998 19.8575 9.18117 19.8575ZM10.0929 19.8575C9.90382 19.8575 9.75102 19.7068 9.75102 19.5209C9.75102 19.335 9.90431 19.1845 10.0929 19.1845C10.2819 19.1845 10.4347 19.3352 10.4347 19.5209C10.4347 19.7073 10.2819 19.8575 10.0929 19.8575ZM10.4918 18.47H8.83368V17.4701H10.4918V18.47ZM14.9687 18.9697H11.0305V18.5248H14.9687V18.9697ZM14.9687 18.268H11.0305V17.7105H14.9687V18.268ZM14.9687 17.4532H11.0305V16.8959H14.9687V17.4532ZM14.9687 16.6391H11.0305V16.0821H14.9687V16.6391ZM9.3783 14.344V11.735H16.6212V14.344H9.3783ZM15.9071 19.8575C15.7173 19.8575 15.5653 19.7068 15.5653 19.5209C15.5653 19.335 15.7183 19.1845 15.9071 19.1845C16.0959 19.1845 16.2487 19.3352 16.2487 19.5209C16.2487 19.7073 16.0962 19.8575 15.9071 19.8575ZM16.8183 19.8575C16.6295 19.8575 16.477 19.7068 16.477 19.5209C16.477 19.335 16.63 19.1845 16.8183 19.1845C17.0081 19.1845 17.1607 19.3352 17.1607 19.5209C17.1607 19.7073 17.0071 19.8575 16.8183 19.8575ZM17.1656 18.47H15.5075V17.4701H17.1656V18.47ZM18.2541 13.25H18.0053C17.8677 13.25 17.757 13.3597 17.757 13.495V14.7807C17.757 14.916 17.8674 15.0257 18.0053 15.0257H18.2541V15.5154H17.3666V12.7603H18.2541V13.25Z" fill="white"/>
<path d="M8 6.05224L8.91166 6.95501C11.1661 4.72257 14.8339 4.72257 17.0883 6.95501L18 6.05224C15.2367 3.31592 10.7562 3.31592 8 6.05224ZM11.6325 9.64934L12.9965 11L14.3604 9.64934C13.6042 8.90752 12.3887 8.90752 11.6325 9.64934ZM9.81625 7.85079L10.7279 8.75356C11.9788 7.51487 14.0141 7.51487 15.2721 8.75356L16.1767 7.85079C14.424 6.11522 11.5689 6.11522 9.81625 7.85079Z" fill="white"/>
</g>
</svg>
