<svg xmlns="http://www.w3.org/2000/svg" width="32" height="32" viewBox="0 0 32 32">
    <g fill="none" fill-rule="evenodd">
        <circle cx="16" cy="16" r="15" fill="#CBD5E0" stroke="#E2E8F0" stroke-width="2"/>
        <path fill="#FFF" fill-rule="nonzero" d="M15.652 17.233c1.844 1.234 2.226 2.567 2.191 3.634-3.617-1.434-7.79-1.734-9.043-4.4 1.043 3.3 6.504 3.633 8.94 5.233.208.133.486.4.764.667.105-.1.209-.934.174-1.3-.174-2.267-1.182-4.9-6.087-5.2-.034-.234-.07-.534-.104-.767-.626-4.267 2.748-8.533 7.096-10.1-3.061 3.1 3.965 5.933 4.104 10.567.104 3.033-1.67 4.6-3.096 5.233.209-5.7-5.043-9.9-2.504-13.8-3.096 3 2.4 9.467 1.356 14.233-.486 2.3-1.67 3.467-1.67 3.467s.349-.5.418-1.133c.07-.5-.521-1.234-.765-1.367-.835 1.2-2.783 2.433-5.53.967-2.748-1.467-4.244-5.2-3.826-8.367.904 3.067 4.765.567 7.582 2.433z"/>
        <path fill="#FFF" d="M14.933 -5.333L17.067 -5.333 17.067 37.333 14.933 37.333z" transform="rotate(45 16 16)"/>
    </g>
</svg>
