<svg xmlns="http://www.w3.org/2000/svg" width="32" height="32" viewBox="0 0 32 32">
    <g fill="none" fill-rule="evenodd">
        <circle cx="16" cy="16" r="15" fill="#CBD5E0" stroke="#E2E8F0" stroke-width="2"/>
        <g fill="#FFF" fill-rule="nonzero">
            <path d="M11.943 14.086v-1.143l-.086-2.543s-.028-.257-.086-.629v-.085c0-.057-.028-.115-.028-.172-.029-.171-.086-.371-.114-.543-.172-.685-.429-1.342-.515-1.571-.114-.143-.371-.257-.571-.257-.257-.029-.572-.057-1.057-.057-.886-.029-2.457-.029-2.457-.029v.229c0 .514-.029 1.8-.058 2.771L7 12.286s1.971-.2 2.657.4c.686.6.514 2.257.514 2.257l1.858-.143v-.714h-.086zM11 10.6c0 .2-.143.257-.143.257H10.2c-.086 0-.229-.086-.229-.086S8.8 10.143 8.4 9.914c-.057-.028-.086-.057-.086-.057s-.028-.057-.028-.114c-.029-.372-.086-1.657-.086-1.8 0-.143.171-.143.171-.143s1.743.029 1.858.029c.171 0 .228.085.257.171.028.086.343 1.171.428 1.486.057.314.086.914.086 1.114zM7.171 13.714l.229-.771H.857c.114.257.257.543.372.771H7.17z" transform="translate(7 7)"/>
            <path d="M8.486 13.371c-.657 0-1.2.515-1.229 1.2 0 .658.514 1.2 1.2 1.229.657 0 1.2-.514 1.229-1.2 0-.686-.515-1.229-1.2-1.229zm-.029 1.972c-.428 0-.771-.372-.771-.8 0-.429.371-.772.8-.772.428 0 .771.372.771.8 0 .429-.343.772-.8.772z" transform="translate(7 7)"/>
            <path d="M8.486 14.286c-.143 0-.257.114-.286.257 0 .143.114.257.257.286.143 0 .257-.115.286-.258 0-.142-.114-.257-.257-.285zM.6 12.286h5.343V7.029H.17C.057 7.629 0 8.229 0 8.857c0 1.2.2 2.372.6 3.429zM16.029 2.543C17.2 3.77 17.914 5.429 17.943 7.37c0 .4-.229.658-.543.6-.286-.028-.429-.228-.429-.6 0-1.114-.285-2.171-.885-3.114-1.172-1.886-2.915-2.886-5.143-3.028-.172 0-.4-.086-.486-.2-.086-.115-.114-.372-.057-.486.057-.114.286-.257.457-.257.972-.029 1.914.2 2.8.571.829.372 1.572.886 2.372 1.686z" transform="translate(7 7)"/>
            <path d="M14.343 3.914c.943 1.029 1.4 2.143 1.428 3.4 0 .4-.171.629-.485.629-.315 0-.486-.2-.486-.6-.086-2.2-1.657-3.8-3.857-3.914-.114 0-.257-.029-.343-.086-.2-.114-.286-.314-.229-.572.086-.257.286-.342.543-.342 1.343.057 2.543.6 3.429 1.485z" transform="translate(7 7)"/>
            <path d="M12.829 5.343c.571.6.857 1.257.885 2.028 0 .343-.2.6-.485.6-.286 0-.515-.228-.515-.571-.057-1.057-.743-1.8-1.828-1.886-.4-.028-.6-.228-.572-.543.029-.314.257-.485.629-.457.714.029 1.4.343 1.886.829z" transform="translate(7 7)"/>
        </g>
        <path fill="#FFF" d="M14.933 -5.333L17.067 -5.333 17.067 37.333 14.933 37.333z" transform="rotate(45 16 16)"/>
    </g>
</svg>
