<svg xmlns="http://www.w3.org/2000/svg" width="32" height="32" viewBox="0 0 32 32">
    <g fill="none" fill-rule="evenodd">
        <circle cx="16" cy="16" r="15" fill="#FF8000" stroke="#E2E8F0" stroke-width="2"/>
        <g fill="#FFF" fill-rule="nonzero">
            <path d="M19.092 5.93h-5.798c-.381-1.412-1.504-2.43-2.826-2.43C8.83 3.5 7.5 5.069 7.5 7s1.33 3.5 2.968 3.5c1.322 0 2.441-1.022 2.826-2.43h5.798c.5 0 .908-.48.908-1.07 0-.59-.404-1.07-.908-1.07z" transform="translate(6 9)"/>
            <path d="M10.638 12.025c-2.473 0-4.538-1.741-5.003-4.046-.065-.317-.098-.647-.098-.985 0-.338.033-.668.098-.985.465-2.305 2.534-4.046 5.003-4.046 1.534 0 2.913.671 3.848 1.733.191.217.473.342.767.342.853 0 1.31-.99.75-1.625-.11-.125-.228-.25-.346-.37C15.004 1.4 14.245.897 13.4.543 12.523.185 11.593 0 10.638 0c-.96 0-1.89.185-2.763.551-.848.35-1.607.857-2.26 1.5-.653.644-1.163 1.392-1.522 2.224-.241.56-.404 1.142-.49 1.742H1c-.551-.004-1 .438-1 .981 0 .543.449.985 1 .985h2.607c.086.6.25 1.179.49 1.742.359.832.869 1.58 1.522 2.224.653.643 1.412 1.146 2.256 1.5.878.366 1.808.551 2.763.551.959 0 1.89-.185 2.762-.551.845-.354 1.604-.857 2.257-1.5.122-.12.236-.241.347-.37.559-.636.106-1.625-.751-1.625-.294 0-.576.125-.767.342-.935 1.058-2.314 1.73-3.848 1.73z" transform="translate(6 9)"/>
        </g>
    </g>
</svg>
