<svg width="24" height="24" viewBox="0 0 24 24" fill="none" xmlns="http://www.w3.org/2000/svg">
<g clip-path="url(#clip0)">
<path fill-rule="evenodd" clip-rule="evenodd" d="M9 17L12 14.06C11.61 14.02 11.32 14 11 14C8.33 14 3 15.34 3 18V20H12L9 17ZM11 12C13.21 12 15 10.21 15 8C15 5.79 13.21 4 11 4C8.79 4 7 5.79 7 8C7 10.21 8.79 12 11 12Z" fill="#717171"/>
<path d="M19.3137 17.2426L17.8995 15.8284L15.071 18.6569L12.2426 15.8284L10.8284 17.2426L13.6568 20.0711L10.8284 22.8995L12.2426 24.3137L15.071 21.4853L17.8995 24.3137L19.3137 22.8995L16.4853 20.0711L19.3137 17.2426Z" fill="#D50017"/>
</g>
<defs>
<clipPath id="clip0">
<rect width="24" height="24" fill="white"/>
</clipPath>
</defs>
</svg>
