<svg width="17" height="17" viewBox="0 0 17 17" fill="none" xmlns="http://www.w3.org/2000/svg">
<path d="M16.4688 14.3442H9.03125C8.738 14.3442 8.5 14.1062 8.5 13.8129C8.5 13.5197 8.5 3.48115 8.5 3.1879C8.5 2.89465 8.738 2.65665 9.03125 2.65665H16.4688C16.762 2.65665 17 2.89465 17 3.1879V13.8129C17 14.1062 16.762 14.3442 16.4688 14.3442Z" fill="#ECEFF1"/>
<path d="M11.1562 5.84416H9.03125C8.738 5.84416 8.5 5.60616 8.5 5.31291C8.5 5.01966 8.738 4.78166 9.03125 4.78166H11.1562C11.4495 4.78166 11.6875 5.01966 11.6875 5.31291C11.6875 5.60616 11.4495 5.84416 11.1562 5.84416Z" fill="#388E3C"/>
<path d="M11.1562 7.96916H9.03125C8.738 7.96916 8.5 7.73116 8.5 7.43791C8.5 7.14466 8.738 6.90666 9.03125 6.90666H11.1562C11.4495 6.90666 11.6875 7.14466 11.6875 7.43791C11.6875 7.73116 11.4495 7.96916 11.1562 7.96916Z" fill="#388E3C"/>
<path d="M11.1562 10.0942H9.03125C8.738 10.0942 8.5 9.85615 8.5 9.5629C8.5 9.26965 8.738 9.03165 9.03125 9.03165H11.1562C11.4495 9.03165 11.6875 9.26965 11.6875 9.5629C11.6875 9.85615 11.4495 10.0942 11.1562 10.0942Z" fill="#388E3C"/>
<path d="M11.1562 12.2192H9.03125C8.738 12.2192 8.5 11.9812 8.5 11.6879C8.5 11.3947 8.738 11.1567 9.03125 11.1567H11.1562C11.4495 11.1567 11.6875 11.3947 11.6875 11.6879C11.6875 11.9812 11.4495 12.2192 11.1562 12.2192Z" fill="#388E3C"/>
<path d="M14.3438 5.84416H13.2812C12.988 5.84416 12.75 5.60616 12.75 5.31291C12.75 5.01966 12.988 4.78166 13.2812 4.78166H14.3438C14.637 4.78166 14.875 5.01966 14.875 5.31291C14.875 5.60616 14.637 5.84416 14.3438 5.84416Z" fill="#388E3C"/>
<path d="M14.3438 7.96916H13.2812C12.988 7.96916 12.75 7.73116 12.75 7.43791C12.75 7.14466 12.988 6.90666 13.2812 6.90666H14.3438C14.637 6.90666 14.875 7.14466 14.875 7.43791C14.875 7.73116 14.637 7.96916 14.3438 7.96916Z" fill="#388E3C"/>
<path d="M14.3438 10.0942H13.2812C12.988 10.0942 12.75 9.85615 12.75 9.5629C12.75 9.26965 12.988 9.03165 13.2812 9.03165H14.3438C14.637 9.03165 14.875 9.26965 14.875 9.5629C14.875 9.85615 14.637 10.0942 14.3438 10.0942Z" fill="#388E3C"/>
<path d="M14.3438 12.2192H13.2812C12.988 12.2192 12.75 11.9812 12.75 11.6879C12.75 11.3947 12.988 11.1567 13.2812 11.1567H14.3438C14.637 11.1567 14.875 11.3947 14.875 11.6879C14.875 11.9812 14.637 12.2192 14.3438 12.2192Z" fill="#388E3C"/>
<path d="M9.37019 0.653749C9.24906 0.552812 9.0865 0.509249 8.9335 0.541124L0.4335 2.13487C0.181687 2.18162 0 2.4005 0 2.65656V14.3441C0 14.5991 0.181687 14.819 0.4335 14.8657L8.9335 16.4595C8.96537 16.4659 8.99831 16.4691 9.03125 16.4691C9.1545 16.4691 9.27456 16.4266 9.37019 16.3469C9.49238 16.2459 9.5625 16.0951 9.5625 15.9378V1.06281C9.5625 0.904499 9.49238 0.754687 9.37019 0.653749Z" fill="#2E7D32"/>
<path d="M7.30581 10.2758L5.626 8.35588L7.32493 6.17138C7.50556 5.93976 7.46306 5.60613 7.2325 5.42551C7.00193 5.24488 6.66831 5.28738 6.48662 5.51795L4.91306 7.54095L3.58706 6.02582C3.39262 5.8027 3.05687 5.78251 2.838 5.97588C2.617 6.16926 2.59468 6.50501 2.78806 6.72495L4.249 8.3952L2.76787 10.2992C2.58725 10.5308 2.62975 10.8644 2.86031 11.0451C2.95806 11.1205 3.07387 11.1566 3.18756 11.1566C3.34587 11.1566 3.50206 11.0865 3.60725 10.9516L4.96193 9.20907L6.50681 10.9739C6.612 11.095 6.75862 11.1566 6.90631 11.1566C7.03062 11.1566 7.15493 11.1131 7.25587 11.0249C7.47687 10.8315 7.49918 10.4958 7.30581 10.2758Z" fill="#FAFAFA"/>
</svg>
