<svg width="32" height="43" viewBox="0 0 32 43" fill="none" xmlns="http://www.w3.org/2000/svg">
<g clip-path="url(#clip0)">
<path d="M18 19.6725C18 19.12 17.5525 18.6725 17 18.6725H15C14.4475 18.6725 14 19.12 14 19.6725V26.6733H9.92667C9.03417 26.6733 8.58917 27.7542 9.2225 28.3833L15.2483 34.3642C15.6642 34.7767 16.335 34.7767 16.7508 34.3642L22.7767 28.3833C23.41 27.755 22.965 26.6733 22.0725 26.6733H18V19.6725ZM30.8192 8.165L23.8283 1.175C23.0783 0.425 22.0617 0 21.0042 0H3.99917C1.79167 0.00833333 0 1.8 0 4.0075V38.6675C0 40.875 1.79167 42.6667 3.99917 42.6667H27.9942C30.2025 42.6667 32 40.875 32 38.6675V10.9975C32 9.94 31.5692 8.915 30.8192 8.165V8.165ZM21.3292 4.3325L27.67 10.6725H21.3292V4.3325V4.3325ZM28 38.6675H3.99917V4.0075H17.33V12.6725C17.33 13.7808 18.2217 14.6717 19.33 14.6717H28V38.6675Z" fill="#00529C"/>
</g>
<defs>
<clipPath id="clip0">
<rect width="32" height="42.6667" fill="white"/>
</clipPath>
</defs>
</svg>
