<svg width="22" height="22" viewBox="0 0 22 22" fill="none" xmlns="http://www.w3.org/2000/svg">
<circle cx="11" cy="11" r="11" fill="#D50017"/>
<path d="M6.54448 6.74266C5.3089 6.80137 5 7.78474 5 8.26908V16.6057C5 17.6155 5.94055 17.956 6.41082 18H15.5886C16.7529 18 17.0143 17.0117 16.9994 16.5176V4.35029C16.9875 3.36399 16.0935 3.03914 15.648 3H10.1829C9.17306 3.01174 8.82159 3.97358 8.77209 4.45303V4.90802C8.77209 5.61252 8.08896 6.66928 6.54448 6.74266Z" fill="white"/>
<rect x="5" y="5.34229" width="3.31245" height="1.90539" rx="0.952697" transform="rotate(-45 5 5.34229)" fill="white"/>
<rect x="11" y="5" width="4" height="1" rx="0.5" fill="#D50017"/>
<path d="M7.27959 14.719L10.9497 8.48971L14.6199 14.719L10.9497 13.4237L7.27959 14.719Z" fill="#D50017"/>
</svg>
